<mxfile host="app.diagrams.net" agent="Mozilla/5.0 (Windows NT 10.0; Win64; x64) AppleWebKit/537.36 (KHTML, like Gecko) Chrome/137.0.0.0 Safari/537.36" version="27.1.6">
  <diagram name="Page-1" id="CJ0eD-q2YIsdejSbyk90">
    <mxGraphModel dx="1042" dy="562" grid="1" gridSize="10" guides="1" tooltips="1" connect="1" arrows="1" fold="1" page="1" pageScale="1" pageWidth="850" pageHeight="1100" math="0" shadow="0">
      <root>
        <mxCell id="0" />
        <mxCell id="1" parent="0" />
        <mxCell id="Fr0JQd10WfQXMw7wgY8r-1" value="" style="strokeWidth=2;html=1;shape=mxgraph.flowchart.annotation_2;align=left;labelPosition=right;pointerEvents=1;direction=north;" vertex="1" parent="1">
          <mxGeometry x="280" y="176" width="240" height="84" as="geometry" />
        </mxCell>
        <mxCell id="Fr0JQd10WfQXMw7wgY8r-2" value="User Question" style="rounded=0;whiteSpace=wrap;html=1;" vertex="1" parent="1">
          <mxGeometry x="220" y="116" width="120" height="60" as="geometry" />
        </mxCell>
        <mxCell id="Fr0JQd10WfQXMw7wgY8r-4" value="Context Chunk" style="rounded=0;whiteSpace=wrap;html=1;" vertex="1" parent="1">
          <mxGeometry x="460" y="116" width="120" height="60" as="geometry" />
        </mxCell>
        <mxCell id="Fr0JQd10WfQXMw7wgY8r-22" value="" style="edgeStyle=orthogonalEdgeStyle;rounded=0;orthogonalLoop=1;jettySize=auto;html=1;" edge="1" parent="1">
          <mxGeometry relative="1" as="geometry">
            <mxPoint x="399.5" y="541" as="sourcePoint" />
            <mxPoint x="399.5" y="575" as="targetPoint" />
          </mxGeometry>
        </mxCell>
        <mxCell id="Fr0JQd10WfQXMw7wgY8r-23" value="Predicted Answer Span + Confidence Score" style="rounded=0;whiteSpace=wrap;html=1;" vertex="1" parent="1">
          <mxGeometry x="319" y="576" width="160" height="60" as="geometry" />
        </mxCell>
        <mxCell id="Fr0JQd10WfQXMw7wgY8r-24" value="" style="shape=image;verticalLabelPosition=bottom;labelBackgroundColor=default;verticalAlign=top;aspect=fixed;imageAspect=0;image=data:image/png,iVBORw0KGgoAAAANSUhEUgAAAcUAAAM+CAYAAABrCxp3AAAAAXNSR0IArs4c6QAAAARnQU1BAACxjwv8YQUAAAAJcEhZcwAADsMAAA7DAcdvqGQAAPPsSURBVHhe7J0FnFRlF4fPJiy7dAsYICkhKCoWiF3op2IXdismitiBhV0oBiomqFgIIqGEIo0o3dJdu2zMd5937929Ozu7zOzEzsyex9/rzr1Td+4M7/+e855I8FiIoigRITMzUxYuXCgHHHCApKen23vzyc7OlmXLlkndunWlevXq9t589uzZI9OmTZO2bdtKRkaGvVdRlFCTaP9VFCXMrFy5Up555hm5++67ZfPmzfbeQl577TW5+uqr5emnny52P6LYp08fMxDH3Nxc+x5FUUJJ0iMW9m1FUcJATk6OfPbZZ3LDDTfIzz//LBdccIGcdNJJkpycbD9CzP133nmnLFiwwIhetWrV5KijjrLvFfPYBg0aSL9+/eSnn34yFudhhx0mSUlJ9iMURQkJuE8VRQk9WVlZnunTp3tOP/10T2Jiohk9e/b0rFmzxn6Ex5OXl+f5888/PZbgsYxRMCwR9IwcOdLc78Bty9L0pKSkmMe0bNnSM2rUKM/u3buLPE5RlLKja4qKEmKwDP/55x/54osv5L333pP//vvP7O986KEycOBAObhjR7MNrC/ecsstYombWMJm780Hy3DYsGFyxBFHSEJCgtm3du1auffee41liUuVdUkszyuuuEIOP/xwqVSpknmcoihlQ0VRUULI8mXL5LPPPzeCaFmJBUJH8MzHH38sJ514ovWvLl/gtm3bJg888IAMGjTIuEO9QQi7d+9u1hpbtWpl7xWZPWuWXH/DDTJ58mQ8PeZxBx54oPTo0cOIY7u2bQveQ1GUwFBRVJQQgPh9/fXX8uKLL8qMGTNk586d9j1irLfBH34o5553XpE1wJdfflkefPBB2bFjh72nOKmpqdKrVy956qmnpFatWmYf7zVhwgQ57bTTijyXdceWLVvKlVdeaQJ2atasad+jKIrfIIqKopSN3Nxcz+LFiz2WlWbW+bwH64j9+vXzZGdn28/IXxscM2aMWTf09RzvYQmp5+233y62bvjll1+a+3w954gjjvD89ddfnpycHPvRiqL4g0afKkoZwFqbN2+eWGIl1157rXGVeoPlds455xgXaY0aNcw+69+ciS69+OKLfaZl+ILn/PbbbybalPxGZ32xTZs2JrfREj/z1w3pHx988IFZg2RtEqsxJSXFvldRlJJQ96miBMiaNWvEstJMsAuCRMCLLzp27GhEs3Pnzvae/MCaO+64w6RVIKyBgCB+8skn0qVLF3uPyDpL9O686y6zhuktjGBZqtKiRQsTjIMQc1tRlFJAFBVF2TukPgwbNszTtWtXT0ZGRjGXpXtUqlTJ8/PPPxv3qsOWLVs8t912m6dy5co+n+PPOP744z2WsNqvmO+KnTlzpseyIj2WBenzOYy0tDRPu3btPK+99ppnx44d9rMVRfFGRVFR/GDt2rWeSy6+2FMpNdWn6HiPjz/+2H5mIYMHD/Z7HbGkwRriLbfc4tm2bZv9qvn88ssvexVqBmuclqVpciO91ygVRdE1RUUpEfINly9fbtbmcD2SArG38mqWFSiWNSh33XVXwdqf9e9Mfv/9d7n88stl165dZl9Z4bXIgWzYsKF06tSp4D2aNm1q6qWOGzfOpxvVgeez3oi7lTXNxo0bm+o5rH8qiqJl3hTFJxs2bDBrhvzzIAF/+/bt9j0lg7Ccfvrp8thjjxUp6M26I2kVq1atsvcEB2uYBPaQj9jswAPtvSKHHHKIOU7eb2/inZWVJRMnTpTRo0ebHMn69eubYBxHZBWlwoK5qChKPqQw/PDDD55TTjnFU6tWLZ8uyJJG+/bti7kllyxZ4jnjjDOM29LXc4IZBxxwgGfGjBn2O+WzevVqz0UXXVTq+qL3qFKliueoo47yDBo0yJOrKRxKBUdFUVFsli1b5rnssss86enpAYkKg3qk3333XRFBtKw2z1133RX0OmJp45hjjilWSxWhtKxGn48vafB5U1NTTX7jtGnT7FdTlIqHuk+VCo0lIibFYsiQISbfcG9rcr5IS0uTxx9/3LhIHfej9W/LrNux31cJt1DBse/evdt01KByDu9PXiLVb8aPH1+kss7ewOXKeiNuY0rQsd6IS5W0DkWpKKgoKhWW9evWyfDhw+Xhhx829UX9TaZ3Qxm2a6+9Rh599LEi4oEg3XzzzWZtMpwgZIsWLZK6deqYQuPOMVDujTVOjoOAoUBgvZEycpMmTTLPrVevXkHxAUWJe/INRkWpOOBiHD16tGnjVLt2bZ/uRH8GLsezzjrLuF3dzJo1y7R18vWccI0mTZp4xo4dax9BPuRV3nvvvUGtZ5JTSW4k6STeaSCKEo+oKCoVCtbfrrvuOo9l+QQd/NK2bVvP5MmTi6wjks948skn+3x8uAfCuHz5cvtI8lm3bp3n3HPP9fl4fwfiTw7k2Wef7Zk/f779yooSn6goKnEPooVYvfvuu559993X58Qf6EBUvRP0d2zfbiwzqtn4ek4kRvfu3Y0QuqEweMeOHQMOHvI1qqSleR555BHPihUrihQ5V5R4QdcUlbiGdcIRI0bIo48+atYNN27caN9TdghoodHvTTfdVLCGR8DOp0OGyHPPPWeCVMqL1atXmzxG6q0SAAROQXDWCUtrU+UP2Tk5pjg5AUl8dooIVK1a1b5XUeIAWxwVJa6whMG0Z7rkkks8derU8Wn1lGXgcqXM2s6dO+13ymfixIkmb9DXcyI9+Ly0muIcOLC+OGDAAJ+PL+uoXr26cRV//vnnnl27dtnvpCixjYqiEnds2rTJ5Ac22mefkCfNk4iP69AN63jNmjb1+fjyGpYF55kyZYp9hPkgjDfffLPPxwczKHJw3nnneWbPnl1kfVVRYhEVRSUuoBsF0ZGfffaZp1GjRj4n72AG63GtW7f2/Pbbb/Y75oMAn3baaT6fU96jefPmxdYXKShwwgknhKXCDhbq888/79m8ebM2N1ZiFhVFJeZBDL///nsTHUlVFl8TdrCD1I3333+/SCuorVu3eh64/35TJs3Xc6JhkDLy33//2UecH3T0xx9/eA4++OCQBN74GrSx+uijj8z7quWoxBoaaKPELAS3kGDev39/efnll2XKlCl7LYRdFpKSkuS+++6T6667ziTrA+9Do2ECa8qS9B8pli5dav7StZ8OHpYQmmR8Kt4QMBNIxRt/ofD5mDFjTDcPgn1aNG+uhcaV2MEWR0WJKbBCLKHy7L///mFxBbrHNddcU6wxLwn6++23n8/HR9vArfnBBx8USaFgffGpp57y+fhQDb6X+vXre84//3yPJZD2OytKdKOiqMQMuOIyMzNNF4s2bdr4nIhDOXAvUnB7w4YN9hHkwzrigQce6PM50TpI7PfuqJGXm+s555xzwuZGdQ+E+cUXXzTnTl2qSjSjoqjEBKzfkWJxwQUXmO7zvibeUA6EgsAaSqe5J3ECVygP5+s50T7ogOFd8YagGBL+w21tM/jeeK9vv/22WACQokQLKopK1ENFlttvv93TuHHjiFg1jJo1a5r+gllZWfZR5Avzgw8+GNWBNXsblHyjuo8Dgj9xwgTPwR06+Hx8OAYl48gf/emnnzS/UYk6VBSVqGXjxo2efv36mdSCcEWVljT69u1bJEGfFINPP/3UrJH5enysDM7jPffcU0SMSPKn4HckPxtWIxc5N9xwQ7G8T0UpT1QUlaiDgJAff/zRiKGvCTXc49RTTzXrbW4WLVoUsrqp5T1ItkcE3W5hbiOWkbLE3SMjPd3z5ptvFrHKFaW8UFFUogYsM1ylV1xxhSctLc3nBBrOgSB06dKlSCd7INL16KOP9vmcWB0HHXSQZ9KkSfYnzIfz36NHj4isL3qP5ORk06KKfFPWORWlvFBRVModLMPp06ebFAuiJH1NmpEYrVu1Mn0W3Qn669ev91x22WU+Hx/rg6AXd2I/rF692nPcccf5fHwkRr169TzXXnut59dff1XLUSkXVBSVcoWyY88+84ynQ/v2npSUFJ8TZSQGFWsook3KhwPrbg8//HC5WK2RGFjGVAHiO3AzYcIE0yvS13MiMTiupk2bem677TbjtlaUSKKiqJQbWAOtLOssEikWexs333STJ8eV3M4a25dffumpW7euz8fHy+DcY6G7rWNuU9KOtUdfz4nUwI3LOq5330pFCScqikpEwRKbOnWq5+qrr/ZUrlzZ52QYyYFVwlqWd8Ua3LntLevV13PibTRo0MAIj3erqbvvvrtcrXf3oIg5F1GkxbgDhBQl1KgoKhGBiWzOnDmma3vLli3LJcrR1yCwZtmyZfZR5sO6Gn0CfT0+Xged+b0Db0iw/9///ufz8eUxWG+kl+Xvv//OD8o+SkUJLSqKStihTBolvuieQJShrwmvPEaLFi08I0eOLGJ5sL526aWXRo1oR2o4FjOWmBsq4Bx55JE+n1Meg98PLnfSR5YuXWofpaKEDhVFJaxMnjzZpDNEg6vUPega/8brrxcpks1aGpZspUqVfD4n3gdreFS88XZPkiYTbcXPEUcuanD7uoOjFCVYVBSVkMMk9e+//3puuummqAii8R5M/tdff32Rqi5UrCGwJhwNimNtPP7440WEhgsHSt6Vd+CNr4E4EkE7c+bMYuvCilIWVBSVkLJgwQLPM888Y67io9UFyXqhd4I+wT+4d309vqINAm8+++yzIoE3W7ZsMYE3kS635+/A8selOmXKFM1vVIJCRVEJCaxFvfHGG8ZVGs0Fszt37lws943O/ZR2q2jriCUNzgOBNwiM25VKov+ZZ57p8znRMIiUbdeunefRRx/VLhxKmVFRVIKCdbjffvvNVEFJT0/3OVlFy6AANe2n3OA2veiii6LSzVueAxfzSSed5NnlKooOROYS6OLrOdEyWL9u2aKFKeDuXjNWFH9QUVTKDC41XFZVq1b1OTlF06hWrZrnlVdeKeIS5PZzzz2ngljKoIuFdyALFuQ+++zj8/HRNLAcaaL8999/FwseUpSSUFFUygwTpq/JKNoGonfjjTearu8OWBBff/113HS+COcYMGCASeZ3YM2Oknh00/f1+GgbZ511VrFUE0UpiUTrR6MoZaJy5cr2rejmuOOOkz59+kjNmjXtPSJz586Vp59+WlasWGHvUUri+eefl++++05yc3PNdmpqqvTs2VMuu+yymPgNWBajJCQk2FuKshdscVSUgCEp/6677oq6HET3OPDAA4sleVPj9PTTT1e3qZ+DwJtDDjnEM23aNPsM5kMH/27duvl8TjQMvl8Cg6ik5K7tqiiloaKoBAXrTa+++mpUdqTHvTd+/Hj7SPNhHZHuC74er6P0Qck3twsaVq1aZQKYfD2+PAcXajfccL2JLFaUQFBRVIKGq3Cawx5xxBFRU8atRo0aprScey0MAX/99dd9Pl6Hf6NPnz5Fih4AhbqjpegB1mHr1q097777ridPrUOlDCQ9YmH9mBTFL7Zs2SJz5syRtLQ0M4D1mhYtWki3bt0kJydH5s+fL1lZWea+8oA1JNa7br/9dqlevbrZl5eXJz/99JP07dtXtm7davYpgfPXX3+Zc3rYYYdJYmJ+SIJlKUp6err88ccfYl2EmH3lQaVKleTUU0+V/v37S48ePQqOD/bs2SNTpkzBCJBq1arpGqNSMvnaqCh7BwuBYtk0gCXZffHixfY9hWzevNlYYw0bNvR5JR+JgcW6YsUK+4jymTN7ttlP/p2v5+jwf5COMXToUPvM5kN6Dh0syrPiDRV3+N691w8pOmBdJHn2339/U/T8zz//tO9RlOKoKCp+g+C5J6Hq1ap5fvzxR59BDKzlNWncOOJVYlhHpLODm507d3ouuOACn4/XUbZx6KGHmnqjbqgiw4WHr8eHa/D7wlVOeo035CbOmDHDHJP7d0gdV0UpCRVFxW+8RZFRu3Ztz5NPPmkqnXizcuVKT8+ePU1dSu/nhWNgnSLSblhTpPOFr8frKPtAZPAaEIHqBhHCIvP1nFAPgmm6d+/umThxov3uhVAcfMiQIaZ3p/fzVBSV0lBRVPzGlygyMjIyPBdffHExywGIVuzfv79pPRROqxFr4dlnny0SWEOCPvVYK2orqHAPziuBN96l1H6yLkzCHXiTZgkiUcR0Y/GuVkNtW1KF+E34eq6KolIaKoqK35QkigzW6tq0aWO6K3i7U3FfjhgxwtO2bVufzw12UM7rqquu8qxfv95+x3y+++67qOsDGG+Derek5LghD/S1114LW/k/BJe6pvwe3fC7w2qkZmtpUdAqikppqCgqflOaKDqDifCxxx4zQugNpbZ69Ojh83nBDMSWYAo3//zzT1R1jI/ngUU2cuRI+8znQ34gpfVCXSDh8MMPL7GWKRdB/tRkVVFUSkNFUfEbf0SR4Vhu8+fPLzZ5IZas8dGzLxTuVCZBOsO72bhxo6dXr14+H68jPAOxmjVrVpHvGzdmqCre4KK//PLLPUuWLLFfPR/ejwsiGiNX9tNNrqKolIaKouI3/oqiM7DUhg0bVmSdDxBG3KxEMPp6nr8DYfVODWB9C9HVdcTIDtyVl1xySbHAm0kTJwYdeNOsWTPPCy+8UMxdync9YcIE0wkjkAssFUWlNFQUFb8JVBQZlADjKh7rzQ19DGfPnm0iGMuSO4jlQIf/LK+2RgMHDoyJVlbxOGgu3bdvX/ubKOTnn3/21KxZ0+dzShv8LoguHT16tPm9uGH98JNPPvG0b98+4CpKKopKaagoKn5TFlFk4E698MILPZu96mYCofOIGyLn67m+BpMlrjRvoWXyLM+iATryv2uCYNwgYEQBByJejuVJMr63Cx4L8d577y1zIXoVRaU0VBQVvymrKDqjXbu2nkmTJhVzp1Kkm6t+alb64wbr3LmzZ968efaz89eVCKw59thjw5r2ocO/gaVO8QZ3FDIdVa677rq9Vrzh+6O4PN4F798JYoh3gQ4nvp7r71BRVEpDRVHxm2BFkYElR6Fu77UnS9mMYNKJoTQLAHfsmDFj7Cflg8V49dVXGyvF13N0RHYgbKwnE3jjZu7cucYdWtKFC4J5zDHHmChSb7hw+vzzz80FUbCl+lQUldJQUVT8JhSiyCCE/8orrywWSQhUxiGlo169esWeR2Wcr776ygioGx5Pvpz343WU30DgcHG7L36w6AmM8eXi5kKIiGFfvQ9J5bn//j4ha1GloqiUhoqi4jehEkUGa0a4S73TKSBz927PsKFDPU2aNCnyeNYesRjcYD2kpaUVeW0d0TEQRqoZuUHwyGl0ry9ye8CAAZ7t27cXWz8kreeEE04IaaFxFUWlNFQUFb8JpSg6o1q1ap6333rLs33btmITIutHdHyvW7eusSLWrFlj35MPdTa5z9fr6oiOgZj99ttv9jdWCCkWeAMOOuggz7hx4+y9hWRlZXlGWeIZjipIKopKaagoKn4TDlFk4Ba99dZbPQsWLLDfqRBcZ2PHjjUdGLx56aWXyhyBqCNy4/rrr7e/sUJoQ/bHH3+YjibeF0OU68NyDFf9VBVFpTQKu3AqSjlB09+3335brMlTRo8ebe/Nh4awXbt2FcsitPcUcvjhh5sGt0r0Urt2bTnzzDPtrUJoUE2j4iZNmhRp+GtZ/6Y5NM2gV61aZe9VlMiRgDLatxWlVOi6X7NmTXsr9DA51q9fX/r06SM33HCD6aReGnT5/++//yQzM9Peo0QbKSkp5sKFv6WRm5sro0aNkgceeEBmzZpltsOFZSnKVVddZW8pSlFUFBW/CbcoOlSuXFluvPFGeeihh6RGjRr2XiWe+fDDD+WOO+4wv7Fwo6KolIa6T5WoA8tv4MCBMnfuXHuPEs9kZ2fLbbfdFhFBVJS9oaKoRCWsIVapUsXe2jt5eXlmKLEHbnPWFhUlGlD3qeI3kXKfwuWXXy4vvvii1KpVy95TMmvXrpXrrrtOli9fXiRoQyk/mjVtKvf16SOHHnqovad0BgwYIHfddZe9FV7UfaqUCqKoKP4QrpQM70HuonfYPLlsHTp0MF3VKSLuhioooW5mqyO44STkuyENo3fv3p46dep4Bg8eXCQVg3Qcap76eq1QD03JUEpD3adK1HHggQfKUUcdZW/lp2x89NFHMnPmTBk5cqQ89dRTZh3KoWHDhnL22WerlRhFHHTQQXLsscfaW/nRpcOGDZNPPvlENmzYIM8995ysXLnSvjffXX7aaafpd6iUOyqKSlSRmJgoRx55pDRr1szeI7Js2TIZM2aMvSUyZMgQ+eOPP+wtMRGqvXr10nWpKIH0i4suukgsy97eIyZ15uOPP5b169ebbQRx9C+/mNtQtWpVOf7446V69er2HkUpH1QUlaiCCfXCCy+U5ORke4/IuHHjZOnSpfZW/oT6wQcfyObNm802QkqC/6mnnlrkeUr5gJXIGq/zXXg8Hhk+fLiMHTvW3Aas/zHWtvs77Ny5s7Rp08ZsK0p5oaKoRBVMqG7XKeA6dSdzk7T/9ddfy+TJk+09IhkZGXLLLbf4rHyjRJY333yzSEDWrl275MknnyxSZIFI4UmTJsn8+fPtPSItmjeXzoceqhc2SrmioqhEDawnUc3GDW7SKVOm2FuFbNq0SV5//XXz16Ft27ZGGHVdqnzA2qMS0RFHHGHvyc9BvPXWW2X16tX2nkIWLVpkvl8ucgzW93bW2WerC1UpV1QUlaiBAJvTTz/d3sp3u2FhlARBN1999ZW9lc9NN91kaqIqkadVq1Zys3X+3fAdsZboC6xFvr/du3fbe/Lr2eItUJTyQkVRiRrITXQn7P/999+mHmZJYIU88sgjJhDHgaAbolNxpyqRgwLffH/NW7Sw94isWbPG5B+6I4W9+fPPP2X69On2lpjv/5prrrG3FCXyqCgqUYGvbgqffvrpXot945Z74P77CwI4AGvjiiuusLeUSNCxY0c577zzCoq48318+eWXRvRKIysrS1555RV7K5+LLrxQ6tWrZ28pSmRRUVSighNPPFEaNWpkb+WL3S+ukP3S+HnkSPnhhx8KhBFr49JLL5UWLZqbbSW8pKenm5QYdxoNdWvJSdyxY4e9p2S+//77ItZ+ckqKKQivKOWBiqJS7pCjdtxxxxUp6UYaxpIlS+yt0iGs/7333isSzEGOXM+e55uOG0p4IUn//PPPt7fyo4OxEqdOnWrvKR2sxXfffdfeyqdnz55Sp04de0tRIoeKolLuEGDTpUsXE70I27ZtM6K4ceNGs703CNgguZ+gDieSkTWuK6+8Upo3V2sxnBAp+vTTT5tm0A7z5s2Tt956qzCq1A/IY2QN0mHfffeVk046yd5SlMihoqiUKwjhIYccUiRpm0T93377LaCuFxQrJz/OLaS48yJVZLqics8990j79u3trXzuvLO3KdIeCBRzHz16tL2Vn3dKMQa19JVIo6KolCusR5177rmSlJRkthFC8hL/+ecfsx0IBHXghnPWFslXvPyyy4xrVgk9XMxc1atXQV4o533w4MGWxV5yxHBJUOGGSOOdO3eabV6zU6dORUrFKUokUFFUypUWLVoUKRxN+P5nn30WkJXohnZTFA53SLAsUdICKBquhA7cpiTq13VFiS5evNic/7KAoP71119FGks3bdpUDjvsMK1wo0QUFUWlXKFGpjs3cfbs2TJx4kR7K3Bwnz7Yt2+RqEeSwa+99toCa1QJDqw4LmToauEIFqkzH374ofz7779muywsXLiwSIUbXKennHKKXz01FSVUqCgq5Qa5aKROuCFnjVqZwTBu/HhjbTpQZJzoSH8b3iqlg0iRYO+2vmfNmmWq0+wtr7Q0iEIlPYNAKwcKve+33372lqKEHxVFpdwgt81tJZJSQcJ+sGAlYrW4Uzpat25thJE1TCU4aPF0xhlnFKwlchFDKbeyrAN7QycNd0cUvi8q5ShKpFBRVMoFyrGRi+aGXMNAwvhLg9JhQ4cONdYHEOVKSyrWqJSyQ4EF6tE66TNAgFNJ9U0Dhe/r7bfftrfy4WJGcxaVSKGiqJQL3bt3l/3339/eEtN8FtdZqCCK8f333zedGBz22Wcf6d27t64tlhHWD/v162fySh22b99uyuw5fRFDAW7YVatW2Vv5bvbLLrvM3lKU8KKiqEQcAihIzMZadCAvkejFUELQx6uvvmpv5UPghk6wZYNSfNQ3dUP7rj/2Ut80UGgH5m15Xn/99aYgg6KEGxVFJeK0bNnSdFl3LDaCM3799VfZsGGD2Q4VpHWQt+jux0jQDSka9evXt/co/kBwDW253JGg/8yday46ypo+UxoffPBBkYCrJk2ayMknn2xvKUr4UFFUIgpCSNI3gS8OdF8nDSMckytrlLfccnORSjdYqH379lXLw09wm/bo0cOU4nOCa3Zs3y6vWVYibu9wQNDVTz/9ZG/lexfOPvtsrXCjhB0VRSWiUPybRsKOIOXm5pqk7WDy2/bG9OkzZNCgQea9gImdSf7oo48220rpkHpBHVnaewGJ9hOsixg6k5TWKzEYiCBGFB1rkcAeKty4ywEqSjhQUVQiSuPGjeWEE06wt/JdpxSDdndfDzVM3EOGDClS6YbjYG2xbt269h6lJC666CI58sgj7a38OrNECq9YscLeE3q4gMHt7b5Y8i4cryjhQH9dSkSh+a+7o4K3myxckFz++eefF4gvbtxzzjnHNCRWSqZBgwYm4pS1WIcJEyaYdJdwuLvdkPeIMDrvg3eBqGVNz1DCiYqiEjGol+kd+Umgxp49e+yt8IHLjyo306ZNs/fkJ4bfe++95riU4iBCb77xhulY4UAw1H333Vfgig4nWPg///yziUZ1oLwcNVEVJVyoKCoRg+R5d9Qn7YXc5djCDe2JEGH3hM66IvVXleKcddZZcsqpp9pb+S7N/v37FynaHW7oq+lO1cFKZD1YUcKFiqISEbA6rr76ansrny+++ELWrVtnb0WGb7/91iSHOxB006dPHzn44IPtPQpgjZEbWKlSJXtPvkB99NFH9lZkwEp0f19AvVyNHFbChYqiEhG6detWpAs+5bzIRYs0BPbcfNNNRVxy5N49/PDDRdbNKjKst2IlHnHEEQUpGBTpJlE/XCkYpUGuqTvKlZxFSr8pSjhQUVTCTmpqipx55plF1qZoKIs7szzYtHmzPP3000XWMomuJPBGIxvzi6dThNvJCcRtSgk+qg45DZwjCSXkSKlxc8cdd2jOohIWdAZQwk6LFvkVbNy990aOHGlC+8sDJnaiJye5+jaSmkEQEKkaFR0EsX379vZW/tovVn15WIkOAwcOLOjKD/TI1DxTJRyoKCphBcsLQWzVqpW9p3gz2fKAHLvBH31UUOkGNyEuXmqjVuSC4aSo0CvRbTGzpjd+/Hh7q3yg6hFrmg5cYJE/WZG/KyU8qCgqYYV0BwpJO65TrDSS6MkbLE8QZKxFquk4kKJx9913V9gUDYSGtk01a9a094i5aHjssccKWnCVF+SXIs5OziIXMVxsucsFKkooUFFUwgruSJrSOhCwwfpUMB3aQ8XWrVvlueeeMyXFHAgGoi5qRbNAsAwp+O12myKEt956a5G6seUFYkiPzDlz5th7xLQeI29R14GVUKK/JiWsUMSZfngOuC1Hjx5tb5U/Y8aMMV363dxwww0Vbr2KmqK9evUqiDYFKg19/fXX9lb5Q2/MSZMmFeSZUkcXUXRqsipKKFBRVMIGuWQUknbz5ZdflmvAhjdYILgH3RZIlSpVTGmzijLZ4ja+5JJLirgiiQx+8803y91t6oaGxlzEuBsaH3PMMXLAAQfYW4oSPCqKStgg1809YZEC8dZbb9lb0QMFBJ588skigT+HHXaYXHDBBfZWfNOuXTsTtOIk6mOJUaSdGqflkYJRGngZ3F356eBBn0W3hasowaCiqIQFEuFvv/32IpMVJd0iXcHGX8aOHSvfffddgQjgmvO2nuIRhBB38X777WfvyY8OHjx4cJEUiGiB2qvffPONvZUfcHPxxRdLamqqvUdRgkNFUQkLVENp27atvSWmLx6VSaIVcvEQArp2ONAMmYR+d6mzeIMgKG+LmDZbU6dOtbeiD47P3ZWfdB9SaRQlFKgoKiEnOSlJevbsWaQ+5eTJk4us20UbWIisV40YMaIgkAMxJGePPn7xCMXZX3j++SKVYWbMmGHWEsPdFioYsGSJYHZD5w6NQlVCgf6KlJDTzBIRLEUnrYEJFpcXgRLRDCkaL730kkkbccCtSF3UeIRSaa1c7mHqi95yyy1RFQjlC35Pzz77bJH1TtaAtTemEgpUFJWQwhoP3dFbtGhh78mvRvLnn3+WawUbf5k9e7a88MILBZYSnwerN97aFfEd0crLAYF5//33ZaKr9F00Q/EHarE6cAFGmT61FpVg0V+QElJq1KghXbt2LagKg7jQPX3evHlmOxYYMGBAkUo38Oijj0qjRo3srdimpvUdkZPorvO6YMECeWfgwKiLNi0JXNy0HnNfaB2r6RlKCFBRVEIKbX26d+9ub+VXsCGMvryKf5cFSoohgu58OII56AcZ61GOWFJHW+JxxhlnFBRoJ2jlk08+kb8j2Dw4WLjYwqplfdGhsfXbI3BI0zOUYFBRVEIKdU7dFsiaNWvk559/trdih99//12++vJL/Ipmm2AU3KgdO3Y027EKhQko59agQQN7j8i///wjn376qbkYiCWocPO7y4VarVo146XQCjdKMKgoKiEDK4QKNu51HXL/EMZYAwv3Y8t6WuCyREgxobktwhKrUFCB9AXHmiK45p133zXu01iD72jsuHFFOp3QFzNeo4WVyKCiqIQM3Kbu3EQsj/Lorh8qSCP59ttvizQjvvTSS2PWWiSS9plnnrG38qGWKPmZsQoWPRajw/7WZ6RurbaUUsqKiqISErAOyRVzQyPhuTG0TuUNYkhzW/ekS3Hzhx56KOYS+jleun+4g4WwsHr37l0kET7WoEYr1YgKAoQsa5FiBO4cWUUJBBVFJSR06tRJjjrqKHtLxJOXZ3L+Yh0COfr3729v5YNFTFJ/LHHSSScVSyt5443XTTumWAYx/Pjjj4tEzXbo0MG4URWlLKgoKiHBXVAa/pwypVhaQyzCZIt7cdSoUfae/Ga8jz36aJF6odFMnTp1TAoGFWwcpk2bJh988GERMYlVyC2lGpGDU3dXUcqCiqISNIgDUX9OgA05ZHRJj4ZGwqHi/vvvN/VRHapVry533XVX1LvpWFsjsOa4446z9+S3YBo0aJBxPcYLTz31VJGcxVOtz0wajaIEioqiEhRE/NHTji7oDsuWLTNth2Khgo2/sDb6wfvvm2hNwFok14+gjmjOi8M6vPHGG01RBcAyJL+PqOB4+n7GjRtnqtw4JFgXaLHm4laiAxVFJSioXIOVWLNmTXtPftRmLFWw8QciaT/7/PMiE+++++5rSovVqlXL3hN9XHXVVaYuqANBNW+//basXLnS3hMf4J346KOP7K18WEelmISiBIKKohIU3q5TimoTDbhp0yazHU/MnDlTvvzyy4Ikd1yTJPRHayHqpk2bmohTp3INUEiBNJN4WEv05tdffzVeCgcE8YQTTrC3FMU/VBSVMmOSpbt0keauZOkVK1YUCXqIJxAS8i4J7HCg0s1jjz1mmhJHExQYePnll4u0hWJNlM4YTrHzeAPrF2F0BB8vBpHCVLpRFH9RUVTKDBbIJZdeanLDHMaPHy+LFy+2t+IPhOXJJ5+UrKwse09+M+I777yzSCWf8oTjOPfcc40F70DOJcEoXLTEK9SqZW3RqbPLRVvnzp2lTZs2ZltR/EFFUSkzTDgMB67QaT8Ur5aIw08//WQKaLuhD6F77a48wW16xRVXSEZGhr1HjEubiOB4ht8fAV7uIuGcC3p7kqahKP6goqiUmXvvvbdI1whKbpH/Fu8QgfrII48UsbooQn333XeXe11UrPfTTz+9SFQslWvee+89Wb16tdmOZ/BSEF1L4A0ghv/73/8kPT3dbCvK3lBRVMpEs2bNpMeZZ9pbhd3Q491KdEBgXnxxQEFdVCc1haox5elGxTK67rrrCgop8H2M/uUXU3IvHoNrvOHzEgzlzpGl0lLLli3tLUUpHRVFJWAQALphkAvmQB7fL9bkW1Egx2/48O+MdeyIDXVRKRjesGFDsx1pEGPaQrnX0NavXy9vDxxYpDdkvDPlzz+LeCyIEr711lvtLUUpHRVFJWD22WcfkwPmZsiQIUW6SVQEli5daupuugWnW7ducqbLgo4kvDfl3NxwfL+5eg5WBPZkZ5vIWzdY8E2bald+Ze+oKCoBg5sQN50DofCkYVQU16kD61ZffPGF/GlZJg6sXfXp08ekA0QSUkJeeOGFIukHiDaRsk4VnooEFXvcATecnyuuuNLeUpSSUVFU/Aa3KcWljz/+eKljdzd3Iv7iOQ2jNHbu3GmCbtwpGhQ0YH01Uj39cJtef/310rp1a3tPfgoGaSIVyW3qhs9PTql7HZWi9bi2NRJVKQ0VRcVvKH792muvmQLTlkKafTt27DDh/qxdVVT++OMPeeWVV4pYypRXcxfhDicHHXSQXHzxxQXBNQgBVWtIZK/IYC26i7g3btxY3nzzzaitQKREByqKit+QfkEDVyYXB8pqkbBfESIbS+P5558vEtxBagQpGuEOusFde+GFFxaxEvlOSMGgG0ZFBre+O/iLi7qzzjpLWrRoYe9RlOKoKCplBiGcNGmSzJ8/395TccFSfnHAgCJd7Lt06WJy5Jx8wXBAeyQS9Z1ybkTF/vjjjya4pqKt8XpDZRus5Yp+caAEhoqiUmYINPnss8/iqgVRWeEC4dcxY0y1G8dqJujlkksuCVuOHGuJ99xzjzRq1Mjek28dDRw40Kx1VnS4KCAIKt46tijhRUVRKTN///13hQv3L401a9aY9kX8dWD9CmsxHEE3pH6cd9559la+ML/zzjumm4eSD4KIMDoVbhRlb6goKmXmueeeq5Dh/qUxevRoYy06IIY0+Q11F3h6Ofbv37+I2NLHkkASpRC8GAQdERCmKP6goqiUiSVLlsjXX39tbykOTL6kY2zbts3ek9/XL5QpGrhNKUDuDhjBXUpgT0VNwSgNvBnqQlX8RUVRKROffvppkaASpRAm4AceeKBIRO5pp50m559/vr0VHNTyxCXrrrFKd5KpU6faW4obmkKzzqoo/qCiqAQM0Xw//vCDvaX44u233zapKm4IisHtGQxUyqG+qrui0L///isffvhhkQICSlGoPLR161Z7S1FKRkVRCRiqhSRrVZBSYS2LNdd169bZe8REoVJI3d0NP1BoCUWunWMlYq1//vnnJuhJKRkKG+hFg+IPSY9Qo0pRAoBJvUOHDsbqadCggUlUx3rUoJuikLtIoYNOnTqZXEXKi9WvX9/0+/vvv//sR/kPQvjWW29J27Zt7T353Ulw1VbkikK+YP2WixDq9J577rmm9yeVf8KZM6rEBwke98KHogQAeWD8fBhYj7jxpkyZYsqeEQb/zz//VPgEciblQYMGSfPmzc0254qScBQNd/f88wf6JCKK7okdyxPXaUWHYCY67Hfu3NmkwXAhgnXIhQTny73+qiiloaKohA0iIrFkZs+eLXPmzDEuPmpREqHpDNx/8fwTxGIhdaJ3794F0aesbZ16yikyafJks+0PrCESSFOjRg17T376x8knnxzXOXgIGuKWkZFRMGrXri2tW7eyLL+2xmpmUKheUUKBiqISUTZs2GBqc65YscK0NuIvrkQ62Tsj3spy7b///jJixIgilW3GjRtnevy5UzdKgvqm9Ae8+uqr7T35nf8pzD5r1ix7T3xAfVJczNSMZdC7EysQVz3dRxyXfajSWxTFGxVFpVzByqFGJfl1zqBUGWkNDOqqkhMZqKsx2mBdiwhIx42HW5l1Lnog7g0Ca0jKd4qL89xHH33U9EqMZSuRNVZK1JFvyQUDf7mAwBKsWbNmwaAQvaJEChVFJWTMmDHDNBs+9NBDpX379mVutMukT/SmM3Cx4nrFfUgnir/++stYmbEkCFg21Il1l2XDYiZ/ERdzSWAVvfrqq0ZUnbVEKtf06tXLrOHGChx7vXr1zFofvw/nN4LoEajljLJagKxp46LnN4KrmbZduo6olAUVRSVkMCERDMJkTfg7kxNRqs5o1qyZcQXiIqtSpYr5W5ZJkJ/spk2bzCSI+5BanwgL6Q8kajMQUibKaPp5Iwjff/99gcVHtC75jFiMHLM3TOq06qKeKecNcC337dtX3njjjai6KMDqc3+vXBBh/R188MFG/Bi4QssiVFwk4SngO3W+W7wJXITx3fMbcC4s+I09/PDDplCCiqJSFlQUlZDCWhcdz3EVMlm5o0+ZMFkTOuCAA4xg4irDfcYakjNq1apVpskMgSCIB1crA0ty+fLlpjg3+xmOaJYXCBvpE3fddVdBQ2CO9YYbbpBRo0YVE3DOx/Dhw+Wwww6z94h5HFbiqlWr7D2RB4sOq8/9vTVu3Mj6Pgu/V1JRyuL25PfCOivflfO9seaMVe18t0uWLJatW4uuxfKeZ599tonGbdeunQqiUmZUFJWQg4WGu/Orr74yVk5pOXRVq1Y1kYMM1pLq1q1r0hcOPPBAM7jtjrgMBI4Di3Ljxo0mwIfjILBn4cKFBYPtSOZXYjFRkg2rERABku9vuukms7bq5oknnpD777+/YILPs4S/x1lnyQ8RriaEZev+PhAgvif394Z1WBaIQF68eHGR74QLK+c74y/nxX1x5QaLFJf05ZdfbtIxynociuKgoqiEDVxeBMvgzqLxrT/iw9oTFgYDa4q/RB927NhRDjnkEPO3TZs2ZZ78WKNELHHv8pf0CFJGcMWxXjl9+nRjXYbrnwXu4jvvvFMee+yxgso2WdZ56nn++fLdd9+ZbeCzUsja/TkHDx5sIlD5DOGCi5ROnTpa57mTOdeIN6LnfBf8xVJ01jcDgfO9aNEic55nzJguU6dOM4LouLqd76QkAXTD+3OBQbBR165dTaqGooQCFUUl7CCOuFOxfHBpBltui8m5devWZtJmsG61/377SWVLQJi0nQm8rC40LBVE0hFKRBOXnjNx83mCESaEh7qoHLcDUbYIIZYTblasbFIuHHAhUpHF25oMBATZOT8M3Nms+znnEAFkTa4sMI0458c5R5xHXOhcaHAu8R4EW3+UtUusVFzOuKH5DIoSSlQUlYjBOhjdCoYNG2YsyFC6Lely77j4WNdi4PbDvcckirXDY8q6XomYY+Xg3luwYIEJ9MAdi4vPGYF8nhNOOMG03nJbOESZfvLJJyZy8r777itwG7MOSjDOa6+9Zrb9AQEkstP5/Pxl/Zbz4pwn3KBlsbiZMrDuHJc0f1n7Yx3XcYFiAXJfqKYXLEM8BmeccYYRRNYNFSUcqCgqEQULC+uL9ATcgawZhQNEgfUmBIG0BkSB6EdEwQn0IRkcoSwLWEIEg7gHwSCIgSMOuGFLcgUizl9++aWcc8459p589yLPJ3AFQXMgBeOyyy4zr+kLBAPR53MxsPb4bHxuAmKcgQCXxe2J5ecEunB8/GUt1v3ZWbsNl1sXNzMpKawbdunSxVjaihIuVBSVcgE3IbVRH3zwQRk5cqS9N7wglEywDCwkXG+II2tTuA+dtBFci2UB8cCqQzD5i+CTNkLaAO5DXImIh8M333xjEvP3BnVkL774YmOpAuJGJ3/nmLGasAL5PM5n4zOU1X2MqHO8TroDKTZ8X+7PFs51TTe4dB9//HEjhljOZRF1RQkEFUWlXGFypWEx641YIZGabEsCwWHtjuRyohlZb8PCZI2S9Swnybwsk7PjhkVwsHZwofoLhdYRJ4SQyi9lFW7OLwNXL38Rbtb8yDGlKALv40/puXCCmGP53nDD9dK7951FrGZFCTcqikpUwDodHSCIwMRNGE0/S1yPrMEhRgxu444lp9IZTnJ9NIFVR9k8rFMnNQXXJ0E9DM45btBogQsNLkBYU7311luL5GcqSqRQUVSiBiwXeg1iORKMw1pVNIIb1lmrJJiHv7gvCVxhLc8pXF1Wa64sYPkR7cna37JlSy3xW2oCm1jXJHKVv4xQBjeFEty+p556qlk7pfOHRpUq5YWKohJ14L4juISWS9RSjQVwqeJ6xWJkMKmz7ocrljU/xgGWaCaUcZ3PDcE7RHuyXum05cK1ilVIuy4Ga4AE7sQCWN/kbWIhYoGXdS1UUUKBiqIStXisyf/dQYNMMA5h//4kdUczBIoQOEITXKcoNhZnSeuUzvofuYmIHwE3rPnxN5wFBiIBn5Xo4Ouvv14eefhhk2OqKNGAiqIS9bAO9tJLL5n1RiIj4+Uni0WE+7V79+7y4osvmuASNzQmpoA4wTmxYvX5AxcCVKHh83GBgDtaUaIFFUUlJiBZnPVGkttJZQimsku0QVQr6Sne1WQqpabKnihdAywLuJVxkV566aWmZZbmGyrRiIqiElMQRYk40pz3999/N+7FeIBIUKJa3cRTTh7rhvfcfbecaokhEabx9NmU+EJFUYlJsBzpwEEXCZLJY514FUXWSumx+fTTT5e5epCiRBIN81JiEqI7b7/9dlNkulevK01KhK5NRQ/kblKtZ+zYsfL666+rICoxg1qKSsxDeTWa73788cem1yDpCLFGvFiKrI8SRHPJJZeY4t2kWChKLKGiqMQF/IzJ3WOd8fnnn5c//vjDvic2iAdRpA0V1jstryhkoOuGSiyioqjEFfycSf5/9913TfI/+Y2xQCyLItZhr1695IEHHjDtnTT5XollVBSV+MT6Wc+cNcsUGh83bpwRx2j+qceaKHJsrBNSML1fv34m11JR4gEVRSWuIemdpH96NyKOwXZ+DxexJIpYhrRyuuiii8ygMo2ixAsqikrcw0+cYtk///yz6V5Pk+NoI1ZEkULnt912mwmiodgAKReKEk+oKCoVBvoZbt2yRd5480159tlnZfv27fY95U+0iyJdLOhg0e/BB6VBw4bGWlSUeERFUamQ0Fni4YcfNl046C5R3kSrKFKajU4fnKuTTjpJLUMl7lFRVCosWIqsN37wwQemdBwtl8qLaBNFekF26NBBLrjgArniiiuKFStXlHhFRVGp8NB9nqR/ysbNnDFDcsuhRVU0iWLjxo3l2muvlXPPPVfatGkTlWubihIuVBQVxYLC4ogjwkix8Ui3aooGUaRMHpZh3759pWnTpmYdUVEqGiqKiuIF9VTvuOMOmTRpkik8Hol/IuUpirhK27VrJ48//ripRqMoFRkVRUXxAWL4+eefm/zGyZMnS2Zmpn1PeCgPUUy2LMO2lhied955piINLZ0UpaKjoqgoJZCXlyeLFi0y3e/fe+89E7EaLiItiuQbUrS7Z8+eJqBGS7MpSj4qioqyF7Kzs2XJkiWmniprjuHo+h8pUSSl4uyzz5a77rpL2rdvb1pwKYpSiIqioviL9U8FV+odvXvL9OnTQxqME25RJNmeYt10EEEUI7VeqSixhoqiogQInf7JbWTgUmX9MVjCJYpElNLSCTfpzTffLHXr1rXvURTFFyqKilIG+GeDkH3xxRcmGIfbwRAOUaxfv74p2E2aRadOnSQ1NdW+R1GUklBRVJQgwGokGOftt982a45ljVINpSiSYnH66afLXXfeKe07dJCMjAz7HkVR9oaKoqKEAP4Z/fnnnya/ccqUKab4eCCEQhR5fMOGDc26IWkWWrRbUQJHRVFRQgjFxd9//32z3jhv3jy/g3GCEUUiSvfbbz8TQHP33XdLgwYN7HsURQkUFUVFCQP//vuvfPTRR/LVV1/JwoULTc5jaZRVFOvUqWNqlF566aWm8S+BNYqilB0VRUUJE6w3UmD83UGD5MMPPzT1VUsiUFFE/Gjl1Lt3bzn00EOlZs2a9j2KogSDiqKihBnEkHXG6667rsSqOIGIItVonnrqKZNmoRGlihJatLaTooQZ1vxwbdKzsX///qYdU6DNeinDRkunm266ScaOHWtKtKkgKkroUUtRUSIIa4szZsyQjz/+WL755htTPo4WTXTmoF2TG1IpaHxMvuEpJ58sl11+uXTr1k3XDRUljKgoKko5wHojKRxffvmlEblHHnmk2LrgE088YcQSNyliWKtWLfseRVHChYqiopQT/NMjZYO/JNx7ryFyH/mO3KddLBQlMqgoKoqiKIqNXn4qiqIoio2KoqIoiqLYqCgqiqIoio2KoqIoiqLYqCgqiqIoio2KoqIoiqLYqCgqiqIoio2KoqIoiqLYqCgqiqIoio2KoqIoiqLYqCgqiqIoio2KoqIoiqLYqCgqiqIoio2KoqIoiqLYqCgqiqIoio2KoqIoiqLYaJNhbzgdu7NFsnLEYw3ZkyueHEaeCCPXk38713pojvVYa9t+ovlPURSlvEko+L81LNMnIcX6HyZQcqIkJFn7+GsPSUmShErJIoy0FJGkim0rqSjy6bftkrzFGyVnwUbZs3CLyIbtIputfVt2iWzfI3m7rGEJpWc3QmkJ5C7+WsKYmZf/17yMpZLmb6FIKoqiRA5HCp2/iJu1hQhmWMKXbN1OT7YE0LpdOVkSLQFMqGKNjFRJrFlFpHqaSJ0MSd6vuqS2qC2JTWuL1KtqiWnFEsmKK4p5lqDNXS1Z3/0ju0ctkbz12yV37Q7JXb/bulMFTVGUioglpdVTJbl+hiTUy5DUQxpJlf+1lsSjm1oWZJL9mPim4olibp7kTVsuO58aJ7t+XWxZf5YFmJ1v7SmKoiguLCszITVZUpvVkeqPHytJp7QVqZxi3xmfVAxRtD6hZ/tuyZ2xWnYPGCc7vp2fv7MEEpKTJDEDN0Oy8bfjf8fPnpCIf966bbwS1m0znNvmqQaPvcFuRVGUcOKewRPc8xo3nTv5y7W/+WsNyzjwWIO/YhkFnj05ZlkoL5NlIPs5xUiQyh0bSPo9x0rKCQdKQp2MuJzk4l8U9+RKzp/LJWvINNkxaIbk7cm27ygkwRK+lH2rS/KBtSShUQ1JalBDUppXlaS6GZJYo7JIeqokVKmUf4WUaokkQsnCNQvSiCQ+ewTTFkeP/UNJUFVUFCXMuKdwa0LPv4HwcZugQHYZ8bMED68Yf3fvsURwjwkqzNuyW/I27ZKc5TskZ8kWyVu7RXKXbZbseZtMLIU3rFWmn9NcKl10qKSe1FykmjVHxhHxLYq5ubLn7Umy7dU/TBCNuTIqQoKkn95MUk9pLcmdGklS4+rGjx7v7gFFURSfIJgbd0rumm2SM2edZP8yT3Z+PU/ytmXaDygkyZorMy7rIGm9jzHGRLwQv6K4aadsv+5L2fXTIsnbVfRqJzExWTLOaSWVex8liW0bWlZgar6LVFEURckHaxNLctkmyflkqmx5dork5hQVx4TUJKnceR+pPvgCSWhax94b28SfKFpfpGf+Btl287eya8zCIu7xxPQUSWndQKo/c4IkdbXM/gqej6MoiuIvnkXrZUe/UbJrxALJ20yUfiEp9atJra8ulsTDm+QvL8UwcSeKedNWyrbeIyRz/GJLDx13aYKktqot6dceKpWvOkykRhV7v6IoiuI3u/bInh/myq6XJ8juCSutHYXykVKvplR/7VRJ6dEmvxBAjBJforh8s2y54EvZPXmJtZH/sajYULn7gVK1z7GSdCy5NmodKoqilBlLMjwL1snOVybLzvenmuImDin715EaL50uyWe0jNm5Nn5EcdNO2Xzqh5L55wpro/AjsXaY8eJZktC4Rn6EqKIoihI0ni27JfP1CbL92fGSu80RxgRJPbC21Pz2Ukls08DeF1vEh9m0e49sv3O4JYjLrY1CC7Hq+a2k6uCLJWHfmiqIiqIoISShRpqk3dNNqvU5xsRr5OORPQs3yNZLPxXZVnTdMVaIfVHckyN7Pp4mu78nIT8f8g7Tz20jGe9eaHIMFUVRlDCQmiyV7zxOqt3RRRJdqWyZ09fKrgd+FNlePJUj2ol5Ucyds1a2vzpZcjcWXpVUPrappD92skjV+EoqVRRFiToqJUta3xMk47rDrI1Cj9z2wbMk64tZ+akdMURsi6JlJWZ9+pdk/73W3sFCbw2pet/RknhgfOTMKIqiRD1pqVLlrqMl/ZRm9g5LC3dkye6Pp4lnyQZ7T2wQ06KYt2C9bHv+T/E4VyKJCZJ+7SGSdEILc1tRFEWJDMRupPU+WlL2q56/w5qWM8cul8yv/xHJyW+tFwvErihaJ3nnAz9Z573wZFdqXU/SbjzK+nZUEBVFUSJNyjFNpfJprfObF1uQK5752XTJ+2+b2Y4FYlYU86Yulx3DF9hb1gdJSpEab5whQrNMRVEUJfLgRr3lcEmuXc3eYVmLU9dI7tjCuTraiU1RzMsziaNO+gVknNNSEo8u9GcriqIokSexVQOpeu3B9hZ4ZMeLk0yDhlggJkXRM2+tZE5cZm9BgqRe3sn6NLHrDVYURYkLEhOk0s1drGm5cD7OnLFaPL8ttLeim9hTEY9HskYvkryNu+wdIlWO31+SD97H3lIURVHKlQbVpcbNlqHiYufAKTGRnhF7org9U7ImrpC87fllheiSn3J0U0mom2G2FUVRlPIn9YJOkphWmNC/a+QSkdVb7K3oJeZEMW/VVslbstHeEklqmC4phzWO6arsiqIo8UZCi3pSqVNh/VPPnmzJnbHK3opeYk4Uc//bLjnLC682khpUleTmte0tRVEUJRpITE+V1E6N7C1LFLNyJetP2k1FN7Elih6P5KyyRPG/nfYO62qkVoYkNKphbymKoihRQeVkYy0SCAmePZYozt5gWTZOn9voJLZEMcc6mWu2WjcKK9ikNLEEsYoW/VYURYkqkhIlqWF1ScqoZO+w2JEpsiW6u2fElihyhbFhh71BkE2ipLRWK1FRFCUaSaxXWZLquxoz0JB4W3R3zog5SzHPJYqSlCBJ+xRWTlAURVGih8SqlaxRKIqeXVmSt10txZBB4W/Plix7y7IUEyxRrJVmbymKoijRREJ6qiRkFKZleDJzLWsxx96KTmLLUrREkXYkBdAJo5r2TFQURYlKUpNMI+IC9uRIXma2vRGdxKAo5iftGyxNTEh3LeIqiqIoUUOCJYgJrhzyvD15lrUY3ZZigsfCvh31eDbslC0nvCWZM9eb7cRqlaT+tFtFmmlD4XDzzTffyPLly+0t/0lNTZWaNWsWjNatW0tGRunVh/Ly8mTixIkyffp0CeXPs169enLqqadK9er5/d6ysrLku+++k//++89sB0piYqLUqFFD9t9/fzMaNGggycnFi0js3r1bPvnkE9m1q7A0YShp06aNdO3aVVJSCt1UihIVbNwpW6/+SnZ9+4/ZTG6QLtXf/p+k9mhrtqORmBLFvPU7ZPMxb8ieeZvMthHFOb1FSMtQwspzzz0nc+bMsbfKTuXKleXYY481o1GjRkZYvMnMzJRPP/1Uxo4da+8JDYjW7bffLvvsk18nd+PGjfLqq6/KkiVLzHaw8HkuuOACad2qlaRWKvRg8PpPPfWU7Nnj8nKEEM7lpZdeKpVc76koUcHW3fmiOPRvs5lUO02qv3W2VDqvg9mORmLLfZrrEc92lz+aZsKVkuwNJRZA8EaOHCkvvviizJw5094bH6xatUoGDhwoQ4cNM9aholR4kiyJYdh4jPs0ultIxZYoWjatJ8urGkJKbH0EJR+sNKzBBQtip/moP+zYscOI/vfff2/9WGPGCaMo4SHJMlxcoohhI9nR/e8ithTF0kPPdtdVBtWDktVSjFXWrl0rX335ZUjXDaMB1kQRxukzZth7FKWCwvIIWQIOllHjydQyb6GDyXOP1wTqvgpRIg6BNPvtt5+0atWqyGjevLnUr19fqlSp4jP4xGH5ihWyZs0ae8s/WDtjbTLQwfPIbfUHPleLFi2KfS4Gn7datWqlvh7rhz+PGGEEknVTX8fjHr7WVoHX51h8PYeRlpZm/pb0fEUpVxBElyh6YsBSjK1Am5XbZH2T5y2DMT9gIbFGmtRf84A1S2rUXbgpKdCG4JXrrrtOmjVrZu8pyvr1603ADAPXojdM6Lfeequ0bVsYjba3QJvevXsXRJAGAtGZCLUTpVlaoE3Dhg3lkUceMcfni9zcXJk3b578+OOPMnfuXLPtTePGjc2xIqBEuJb2T+3zzz+Xf/7Jj9BzQ3TrmWeeWeL5RQxr1aolVatWtfcoShSRkytbrxkquz6cZjYTJEmqv9xD0m473GxHIzF1ecmU4hGvyUevkKOaunXrymmnnSYHHXSQT6sKoUAEA2HfffeVAw44IOCBSIUqbSEpKcmkQvTs2VNq1/bduozPtWHDBmPpkbLh65icUdJr8D4Iua/nMLBaVRCVqIV/865/9x7LpGFEMzGmKPmyWADnWjUx6klPTzdC5suNilCWZI3FAk2aNDHWsi+ys7Nl587CNmeKUuFgji5+LRzVxJykeNyiqMQMrLH5ch867r9YheMvyZWLlYeVGCk4v6xhukeweL+eP6st3s8pafjzWt7wHFzVOTk5BYNtXm9v+Do//oyyHKdi48s7FOVzeEytKeau3CrrmvS3buUfcmLNNKm38SGfbjkltJR1TZFJhfy9wYMHy/z58+29heCCvPvuu42AOOxtTZEcx1AIaTBrig5MyC+88IL8/Xd+crIb3J433XSTcZ3ujXfeeUd+//13e6sQ3Kq9evWSdu3a2XtKZunSpTJ16lR7S4xlftZZZ9lbgYPrl2Nyr5di8Xfu3NneKs66devkt99+s7dKhn+zVDaqX6+e1K5Tx5xv92/AG6Yp1qf//fdf8zskcnn79u3GHY6LnnPdoUMHc65xJ/uaE8aPH29eIxB4/fbt2/v1HSo+sL63LdcMld3v/WXvEKn2cg9Jv+1Ieyv6iEFRfNreUlGMJCWJIoEglE7DjeiNs6ZGuTbyEbmqd8NzEY2WLVvae/LZmyiyjkfJuECoY028RMS6ozRDIYoI/VtvvWVeyxtK2hFEhPt4b4RCFEkDoZycAxP6u+++a28FDkFEX331VRFR5Dw++eSTJZ4XvuuXXnrJ3to7CCHnmqo8Rx11lM8SgLw/rztq1CjzO3IfjxvOM+fphBNOkAMPPLDYvPDoo4/K4sWL7S3/4HNSpah79+72HiUgYlAUY35FTgWxfNm2bZtJVB80aFCx8eGHH8rQoUNNVKW3IGLpUZqMtIdAGT58uJn8AxkjRowIae1RhBur7IsvvpDNmzfbe4vSsWNHvwQxGiFS2FdULRc5s2fPtreCh9dfuXKlqa07YcIE41lww3nmN/TRRx8ZK7EkQQTWb//44w/zWI5TiQKs+TnWZmgNU1GCgkkMNxaWkvfYunWrKbrtDRbi5ZddJoceemiZLmp4TSbAQAaTfGkTqje4Afv27St9+vQpNu644w658cYbjZWJ5eI9kQPWT/cYti6wnksqlI4bMhCctVVn+PrOuWDB7epddB6RGzNmjGzZssXeUwhWJZa02+2K42vZsmUyYMCAsNWaVQIkxgwXFUUl4jDBvT1woLmi9zXZRQMIKNbG6tWriw0sw5ICMHC34cJDPEOV/hFpsOoXLlxYogWMcCE8/vLGG28Y97Az3n/vPeOCPeyww4pEJHMhtWlTfrF/4MKEbiluCx8hJG+zf//+8tprr8mAF14wbm6scrdrHEGfNi0/N64kDj74YOnXr1+p47777pNDDjnEfoZSEVBRVMoFCmaPHj3aBOAw+cUL5A5eesklxhqOVbDwKUzgWMBYYm43MJb3rFmzfF4U+EOCJV7kjGJJuwOm+E3gdeB1uSiZNXNmkTVAqiOdcsopcsYZZxhL3Fic1iD459prrzXriG5mzJhR6jFSVIHnlDaaNm1apkIRSuyioqgEBZPl0UcfbSYq70EAzhFHHFE4gfmAiQtxDMS1yWTGRBXI4Dgjsf6MhfIT5d0C+DzRBmX33GKEcPE9Om5K8i9xGyOewYDIebe7ct4D1+e/ljC7XaAIKcE4voJ8+H4pEkGkqDN4fXWhKoGioqgEBe6sbt26yTnnnFNsECV6zTXXyAMPPGBE0pc7ETEknWHFihX2nr3D6z377LMBDaJcI1H5BaFgze2roUPtPbEHbkf3WjDRwbgQ3VYd3xepNsGAuxTL0IHvhwseLl5w4bo9CIgl6TulRR2TkkG0rzMuuuiiUvNEsUy5iCltBCv8SuyhoqgEBRMYazlMWr4GQshEd/bZZxepb+qG3DEiEP2lLAXBSwrwKAlSDwi0Yb3KPVhnuu2224zgY7n4qtKD2/GHH34w64+xBmI4ZcoUeyv/+8VK5LOSC+jA2h/WpHdUsS8QFwTUGSuWLzdrhUScOmvKvA+uSho1A9aoO4KU3xLNod3fIRdUrHuSs8jgd8S2M3htXqck+Jz3339/qWPYsGH2o5WKgoqiEhEQjyOP9J2bxERMdGhZ16jCAWLuq8Yq60xYTVi+t9xyi6np6g7wcOMWl1hh8uTJRawjLg6wFHFBI1ruiwCaRPuT5vLUU0/Jww8/XDAessbbb79dJFiH4KSTTzpJatvWKL8H1i4dEEMurtwgeuSzPvPMMz4HgTiB5iUqioqiEjF8JWYDYsgk6I/VEU1QzeeYY44p8XMtWrTIJC/HClheFABwQ1K944JEuNzuSCro+ONCxVpzD18pLFREakERB9sSxDL0tuy91515HfJk3WlA3sMtrGWhpAseJX7Rb1yJGLjRSoJJMNYmICZtquSUtFbJhL07M7AOIOUJ1Xm8vyOCpEjPYHDxwvfkgMCRcB8KCLaayGvZFxEEzrgtQ9471Ot7WPluC9bXCKZMnhKbqCgqYYcrfNbXmPh8gRhmWJOge8ItDSyEso5Qu2hJvSip7ROiQTBHLMB5+fPPP805coML8vHHHzcDN6g7MAZwEe/NhUqe4nvvvWcGZecoA3fllVca16wDFxB/TZ0qW2zhw01LTVMHvAi4Qt3Hh2iee+65ppgC4/LLLw+oJi7fGy7h0kYsp9YoZUNFUQkK1gNJ5nasCffA8iCf7VdLDJkMS+qwz+RWxzUB7g1qhCKwZRmBFoT2B/fk7oYJPFZSAjgvfGeBQhm2vVmLXOw4g7VaIkhxy5544olF3LFEmzrBNYgiVqoD55LcSYJ0HAi4wlIncZ9BkA4XIooSDCqKSlBwhU8tUkSvpPHZ55+bCdfbCgFckBQTD6QLwddffy0ff/xxmUYgqR/+QhCKL7CQ3akN0QyCwxqcAwKWlpZm3JjewzvNgYuUQMWf1+c7d1tirP85ljXvQbSy2zXNRdWPP/1U5DgdsFZZD2VtWlGCQUVRCQomfsLz3WXQnEGYPOtApQXQMOmRrhHLbqqSjp3PXZ7uUy5Cvvzyy1LHt99+a74jrHq3G5QSaOSD0lnCe9C1ww3fM8n8gcJ3T4K9A8LqiCsudUSR3EQn4AYr8K+//jLuWAq8c6GFl4Kaqbh291bBxhvqu/o6J+5hCtrPnWs/Q6kIqCgq5QITHZYIhbVJc/CONIwl3Pl7bnAtumt5RhouWOhgUtr47rvvTBQpAuMIClYa3UtISWFdz3vQEsv9mbGGae0U6Hqtd0UbRM/t/iSqt+uxxxZZs+VCg2MlFYN1TvJG8UbgAfCOTt0bPMfXOXEPvCCzZs/26eVQ4hMVRSWiIH64GynDRb1KLIFYB/cv7kBvEEWiOaM51QQhw9pyr/di+ZbW0ouLGff3hmBgdQVawzbdEkVeywFRI+neLW5tDjqooMWYr0IJbrifNBm39akogaKiqPiF9zqSv+AGw01GRRRC4I877jgTeUj5t06dOtmPigwI8t4m1rJA5KwvaxExRCz8SSXwrgEaKRA0+ia6LSECXPi+SsIJcKFSkAMuVF/rtZzzkrwAqdbrYHm6U3Fww7rXYXkuQTRcQJ188skmqMnX6yGEXbt2NQJK5RtFKSsx33m//qaH7S0lnBAVWJZEaEeIiDpkMKG6rQNf8JPEYvAO/w8F9erVK3h/RIvP5SsYhmMtrZC5N4gClqE3fF7cf7xeafB5CVryhnNHmsHezhlwvsriruWCxx0og9uypDQTB9ZKCXhxrDrOE8eJxey2GNmPJV3SeaQqDZ/bmYY4X3xHvnJW+Z74fFi2rFkTVIMYErDDc3h/hJpIWr4LjoV9juWINVyWwCeio0uruaqUztZrhsquQYXVnaK9876KoqIoihI2Yk0U1X2qKIqiKDYqioqiKIpio6KoKIqiKDYqioqiKIpio6KoKIqiKDYqioqiKIpio6KoKIqiKDYqioqiKIpio6KoKIqiKDYqioqiKIpio6KoKIqiKDYqioqiKIpio6KoKIqiKDYqioqiKIpio6KoKIqiKDYqioqiKIpio6KoKIqiKDYqioqiKIpio6KoKIqiKDYqioqiKIpio6KoKIqiKDYqioqiKIpio6KoKIqiKDYqioqiKIpio6KoKIqiKDYqioqiKIpik+CxsG9HPbkrt8q6Jk/bW5ai10yT+psetrfigN3ZIuu3i2fTTsnbnCmeHVmStytbPNbI25Ujnqw8EWt4sjzikVzrCflfHVvObUVRoolESTB/E6z/rNtJlh2Sbv1NtrarJEtieookpFl/MypJYvXKItacllC/moi1LQn5z4x1tl4zVHYNmmJviVR7uYek33akvRV9qCiWN7v2SN74BZL561LJmrxa8nbussRxj3gyLRHcw7CEMDtXPNnW3xxL/tBC/oq1XYAKoqJEJ4XChixKovX/FOtvkjVSLHE0I0kSUq1ROVmksiWSGZUlpVkdSTv1AEk+saVI7Qz7FWITFcUwEleiaFmDez74Q7Y8P0ly1+0UybO+htj5KhRFCSdoqSWglmkpNW46WNJuOVakeb38+2KMWBNFXVOMJJnZkvvvWsl86EdZ3/ZF2XjXSMldvd1Se8vqU0FUFMWB6SDX+l9Ojmx55S9Ze8hrsuOKIZI9aYnIjqz8xyhhQS3FSGCdYc+qLZL16XTZ9eE0yfp7vX2HNwmS3KCKJDeqKom1qkgC6wppKZKQkixSyRrJuF2s6xiGuYpMEA9XlPbaQ0KcrEEoSqzjTKvWBJsvcOavNXKskcdSiDX25OYvjbBcsitLPJszJXfdDslevN1reaSQlIbpknZBB0m7opMktt/Hmgei365R92kYiVVR9Mz6T7Y9PFIyRy+WvO177L2FJNerKukXtJGkQ/aVxANqSlKtNEmomioJlVJEUpPyRTDF+osQugc+Fv44qCgqSvTgnlodcWSZxAxL9IgTwEuEMGZli2dntuRttYRx+TbJm7VKMof/K5lz1uY/3k1SglTu3Egy7jpWUs5sk3/BHMWoKIaRWBRFz9gFsu7MIZK3K7PYj7tSmzpS9fYuknS+ddVXxRLAZFv4FEWpuBiLMk88mZZQjl8oO178XXaOXmrfaWNNE4mVU6XW8ydLyk1H2TujE11TVPLJypGcz6bK+nM+kbwduwsEkQi0lGY1pdYzJ0qt326UlOuOksQaaZZFaF3tqSAqioLHh4jUqpUl8fS2Uu3Ha6Xu0Iuk8lFNJCHZtgqt6SRv9x7ZcPN3sueJn0W2WxfdSkhQUQwH2bmSPXyObHlglORuLvyxJtWsLFXO7SC1h10qle49XqRWun2PoihKCaQmSfI5HaTmkIuk6s1HSUqjoikamx4bJ5kDxlkmmXXxrQSNimIYyPtrpWzt+4tkL9li7xFJrp8uVfscK1XfOkMS2jey9yqKovjJvrUkvf8JUv31s6RS27r2TstozM6TbS//IZmDp4tk5th7lbKiohhqdmfJ1tu/lewFG+wd1klOT5Hqj3SXyrcdIwl1YjsRV1GUcqRyiqSceZBUQxjbFeYt5m7eJTte/E1yZv9n71HKiopiKMnOld13DpfMKYU/TKpU1HjwGEm5/kjrdoq9V1EUpYwkJkryMc2k6pMnSsp+1e2d1vSzZLPs6vuTyYdWyo6KYgjJ+flf2fbJbHuLoJpEqXbDoVLp7uM1h1BRlNBhzScppx0kVe8/1ppnClMydo5aInvempAfwaqUCRXFEOFZs012DpoieTsLr9LSujeVtDu75adaKIqihJKkRKl0+WFS7epO9o58tj49Xjz/rrG3lEBRUQwR2ROWStaE5QWpF8kN0iXt1sMloVGhe0NRFCWkpKVI2lMnSaWDats7RHLW7ZJdb/9pbymBoqIYCrZlSvbohZK7flf+dkKCpHZtao0DrTOsblNFUcJHQp10Sb/1GElILpzOM8csFs/CkspJKqWhohgCcldukd0jF9hbdj7ieQeZ3miKoihhxbrwTul6gFQ6pKG9w7IWl22RrF8XFquipewdFcUQkDtxqWQv2mxviSTvW1OSj7OsREVRlAiQuF9NSTnqgAJrMW9rlmT/vkwT+suAimII2DPyX/tWPhkXt5OEGG8MqihKDJGWKpVPaCZJDQrnnZy5ayR3zTZ7S/EXFcUg8eTmyq4vixbrTaVyvaIoSgRJPriRJNYtFMU9UzdKztLt9pbiLyqKQZIwf73kSmF90+Ra1o+yRWEJJkVRlIhQP0OS9ymMds+TbJEVG3VdMUBUFIPEM69oPlCV7o2ss6qnVVGUCGPNO5UOb2Bv5ONZsUkT+QNEZ+8gyV1aGGADya3VSlQUpXxIblbTvpVP3urtaikGiIpikOT+V3QhO6lRDfuWopSdvLw8ycvNtbcUxT8S61e1b+WTt3GnZSnaG4pfqCgGSc6GHfatfLQLhhIK3n//fXnp5ZfV9aUEREKNKvatfHK3Eu+gv6FAUFEMkryNRTte0y1bUYLhv//+k3feeUdeeeUVWbZsmb1XUfZOQnrR+Yd8Rb2uCgwVxSDJ9RJFyVBRVILAmsG+/fZb+eeff2TVqlXy/gcfWLt0VlP8pEqqfSOfvG171FAMEBXFIMnbkGXfsqlS2MZFUQJl+YoVMnz4cNm2bZvk5OTI999/L//+W7Q4hKKUSFrR+Sdva7a64ANERTFYsr1+cKkqikrZILhmwoQJZjjMnTtXfvrxR8nJ1saxih+keLWp01itgFFRDJK8DV6TlfePUlH8BOtw8ODBsn17YRWS3bt3y7CvvzYWpKLsFa/5x7MlR92nAaKiGCSeXOtH56aSiqJSNsaOGSNjx461twr566+/ZNSoUfaWopRCStEp3ZOnpmKgqCgGSZ63fyJB+ycqgYPr9KGHH5bMTK/ALYusrCwZMGCA5i0qe8dr/vGo/zRgVBRDTF6SnlIlcBKsyey3336TLVu2mNG2bVupWrVqwfaff/5pHqMopeHR+Sdo9AwGiceyFd3oxKWUBX431atXLxhJSUnF9iVoTV1lL3jPPh5dUAwY/VcWNPqjUxQlOig+G+n8FCgqiiFGr+YVRSkvdP4JHj2DiqIoimKjoqgoiqIoNiqKiqIoimKjoqgoiqIoNgmeGCrBn7tyq6xr8rS9ZSl6zTSpv+lhe6t8WJPxkHh27rG3ROqveVAS62tPxZIgST07O9sUu87NzTUdIMxgv73P2V+ROfnkk2XFihWm9mlFhrSUxMRESU5OlhRrEEjCPvf+1NRUc1vJZ3VCH/tWPg12Pi4JVVLsrciz9ZqhsmvQFHtLpNrLPST9tiPtrehDRTFIVBT9Y8eOHbJw4UKZOXOmKXhNayT6Bm7evFl27dplhBLBVJSSQAhTU1IkrUoVqVGjhjRs2FBatmwpXbp0kU6dOkmLFi2kWrVq9qMrLiqKwaGiGCQqiqWDRTht2jT59NNPZfTo0aYNUpMmTaR58+ZSv359M4lVrlxZKlWqZK76ueJn8gPnr1IxcaYm/nLBhAdhz549pkg6RdPXrVsnixYtkqVLl8r+++8vxx13nFx00UVyxBFHGOuxoqKiGBwqikGiolg67777rjz33HOyfPlyOfLII+Xqq6+Wgw8+2FRoSUtLM5MX1VucCi7OUBQHpihnII5caOFZQBzpLPL333/L+++/L7/88os0atRIbrzxRrnjjjvMRVZFREUxOFQUg0RF0Tdc1T/00EPy1FNPGcuQvxdeeGGFnaiU8PPDDz9I7969jZv+pptukpdfekmSKuDvTUUxOHR1Wgk5rB8igs8//7wcddRR8vnnn8ull1yigqiEldNPP12GDh0qp556qrz55pty5113ydatW+17FcU/VBSVkIJr67vvvjOT0qGHHipvvfWWCYQQdYkqEaBdu3bykmUhnnjiifLhhx+aps203lIUf1FRVEIKEaUIIYEzb7z+ummBpCiRhCAuLsoI5Bo0aJBZc1QUf1FRVELKyJEjTcrFnXfeKW2tq3ZFKQ8OOOAA6d+/vxFE1hqJWlUUf1BRVEIGrtN33nlHDjnkEDn++ONNRKmilBekZnTr1k2+/PJLkw+rKP6goqiEjFmzZsmMGTNMcA1X6kpxSCkgEIlJmrQCJXzUqVPHVAZasGCB+V0qij+oKCoh46effpKMjAzp2LGjyUEMBStXrjTRq84gUTsYdu7cWfBauHrJc/MX1ku//vpr89zvv//e3us/5GoS+PHaa6/JG2+8Ia+//rqMHTvWVPQJFIQVC8j5LFQKKqkiEInuv/76q3ncV199JcuWLbPviW9SUlLkoIMOMuLI51cUf1BRVEIGV+OI4n777WfvCR6EdsSIEQWD9aFgIOHbeS3WPhEXf6GCClV5eO748ePtvf6xatUqefrpp2XcuHGmxN38+fNl+vTp8vHHH5vPGOiaF0KHqDuf5aOPPjKC7wv2//HHH+Zxo0aNkjVr1tj3xD+UgkMUuWhQFH9QUVRCxpIlS0zUae3ate09wbFlyxYzmWMBOeOvv/6SjRs32o8oG85rOVVSAsF9LP6Sk51tLEMsQtZZKWbQulUrSU9PNy7Un3/+2YhmIDjVXZyxfv16YwmyrusL92NjqF5H0FA5iQs1iqsrij+oKCohg4kZl1XVqlXtPcGBIHqvuzGpY+HFEmvWrjVWJjRt2lRuuflmua9PHzn77LPNPvLoqMISLJwX6swqhVSpUsXU1uW3qSj+oKKolEiglhTVQ6haE4r1RKwqx+XFpIZLlr+A2xH34d5AUNdagoS7MDMz097rH7gzeR6TKSXrgoF1S+c81qxZU6pZ1gv1Xenq4BCK6EguGHAv85nLCseJJb5hw4aAPzeP53xh9fpyB/PauKu539f3x/2cK847bm5rh31P2cFzwYWaP78XRQEVRaVEFi9eLNdff73pRLA3mNAQHrpchKJDAe+9evVqc5s2QSeccEKBW5YJmzW5kmBC/uabb+TBBx+UJ554Qp588kl5+OGHTZDM3tYQEQQSv/tYlhzPe+yxx6Rfv35mLbGs0aIcv1PkHDeeI1p//vmn+Qt169a1bwUHgUkE75TkRi0JnkdR7fvuu08eeeQRefTRR+WBBx4wQUHegTl811OnTjXn5/HHHzcWPa7zF154wZwvyvuxvkxQEffzOCxl1j2ph8vaKn9feeWVArcx+YQ8j++Jx/Pe7733nvmugwFB5EIt0IsipeKioqiUCBMJeYfkeyEwK60JvaTJxZmEmfyDrXGKxTFv3jyzpggES3AM++yzj3l9hI3mu74mfp7z7LPPGgHE4sDy4PEIEULJxO8LJnraWjExT5482Yij81wm7k8++cSs2ZVFGDnuVq1amdu8FmuIvNaPP/5o9hEIEkzlHwSVziOcd84JgkUaAp9pb/AYxJnSaIgp5wmrisH5mzJlijmfY8aMKbD+eM6mTZvMhQluXwTt1VdfNX+dc0ZwD9G23M+xIHBcWPD9cD/P5zgRzt9++828P8/nfl6D+8eNHy9ffPGF7LQeX1a4SNN8WSUQVBSVvcLVOlfvRx19tCn0jWXgLY6Oqw3RCrYLOhMiEynuQKCGKtYndS2Z4NiPJentJmTSpiA0zwXWk3gOhQTInURcS0pHYCImmpO0CyA4gyIE3bt3N4LMOimuQV9uQX+45JJLCtZaJ02aZAQRcalVq5b06NHDuFWDgV6CrFcC54Uo10xckHthhSVcWHB8Nr67Aw88UI62vueuXbua23yXiBgXGbNnz/YptETichFBb0yOoVmzZiaIyIHnII64i7H4jznmmIJzwYUI7cVwjVMjl++K74xjAdZI1wWxHujuz6ko/qCiqBTAuhZWA7lsAwYMMG40N1z5UzrrqquuMm42HutMks5fJqBgJyGsKScfkcmyffv25jZ/nXVFHsPxuCdpd5I265pMsNdee61ceuml0qtXL7nssstMPUxfMGnPmTPH3Mbldv7558s111xjnsNfmteWVbhYH/OVEoDw0k7r8MMPD9q65rU4Ri4EADGZvpeEdazKIZ9+ai4IgIsPPivf7xVXXGFud+7c2dzHejHWYkmeAiJq+Sw8h3PNBYgbxJLX5RivvPJK815u6HDBfr4rXqNx48ZmP5Y5FmtZCcXvUalYqChWYJgUufp/+eWXTSQkE+D//vc/s4740EP9jDh6wySF6xJXpImY9BLFYMHiREBMoIUFx4QFAqzNYUUAEZs8zm25IZLOpM2keuyxx5qQfEB0WrdubawgX7Am5nRToPgAj3MEBpHs1KmTEa9AQXBwvWLBegd7YPHyeRF6XInDhw83eYRljZSkitApp5xibvNZcNGW1joJDwBuauDcnnTSSUbMsK4Y3L744osLAqfIr/SVC4kVz/tiUdPklwsPzpkDokSDaV6P21j7zvcIPBZLl6AY4FgcdzM4oq0okUBFsQLBJIwrDIsKi69Dhw5GAAhqwAXGREjLHYIgvvnmW7MG5AZhYdLDSpz6119mwkywngOhuhrPskSNXEQHhIhjdtap3BYGouheb2KSR+j5HESr1qtXz74nH/Y7Vqc3TlAPUC/Tex2KiR+3oHuy3xtcQCByEydONCKFuOAiRJw5X0TYEi3K90GFHISTdT0+a1ngNbkQ4DiB9blPLUvQcW17g7XtuKix5LzPFyBQzjnj3DruZTe4QhHE0tbuHMvPAbcx3wcQQOUIooO3+zUYQnXBplQMVBQrAEyKTLysHSFkCAuBEUxGN9xwg4m2/P33340l8MEHH8jtt99u1n4cVyMTFhPjbbfeKj+PGGGiB+t4RUs6EyITkDPRloXJf/xRxDJ4++23TSSoM9yBMojKxEmTzG0+I6LJezPZ4k70hWM5euNOiSip+ADnwXHf+gNrewTtcGycn3POOce4c3ETOrVhifokmMQRZY4PwSgrPJ/vzvn8XDhghfoSBncRBESopKhht9vYybd0gwW4N/dvaff7utAI1UUWvwcVRSUQVBTjGCYEAhkQMdZpbrvtNjOp3XHHHabnISJJWPzll18ubdq0KXal71hWRJ4iRs+/8IIc1Latzwkr2SWKJVkmewNL5JdffrG38nEiIZ3hbUURUIILlWNiUucvx1BSQExJa2KOqxRKi7Bl+MvmTZsKhKdBgwYmaIdzzO3LLr204KKDKE7cxdy3//77B1X8gO8M1ySD27wu1qcvl6z7M2PVlvS9uc+Hr4uNki40ogEVRSVQVBTjFCY4Oo8T2EDkKILC2uFnn31m3KVnnnmmcTE6LixfMEHj0rv77rvNmlppV++J1oSONcAkVJa0BWB9yx39SYcDAl68x6mnnlpgsTHZsy7K58CiQVg4Bqw0X+LGRYIv3AE4pAZ4gxjibixJMH2RbT3HERqOzW0tNW3WzESkut2EfCas+NK+E39AVHGD89oIAsLspLe4QZwd+Gz8RrxxLqwcCKjxJlRWXThwLmT2ZskqioOKYpzBJEa6AoEPWIdMhuQaEo2I2w6h816/KQnWwAjL99dlyCSMCAQiHA5M3uSrOVf1dE8/7bTTTFSi9+CzcT/weDog8Bc3HtYit0m9IBDIeT1g0i+pkDeTvTO5U6DbO6Bkq3UecYW6X29vsB7nnDuiab1fcx/reN2uUi4mcHMH8h4lwboilmlpsD7sBNFQVIAAKn4/DtzmO3GiP3ErO0FPsQIeA0TRbRUrSmmoKMYRTPpYglgJWDtEkbIGeKllkUQCktCZgHxFKO4NJl7EHLiqZ1IvyY2IFdmyZcsCdy/rcoggCeyOJUPQDdGXCBkVeej1iOVcUuspWgw5eX6cR6qzUE4OYWVd7vU33jDWVCBw/M7x4PYlHw/h4XNykfLW228bMXLEmAmcwBze1y1OZeWMM84oCLrxBYJIGoVjRfHbIX8SyxCrndt08QDW/VirdEQ0VuACjSCnYNZplYqFimKcgEVIROk999xjLCa6MpBr2MISD2vWtR8VXrA8mIB8uepKA8sIEXfSB7CwmMy91zgdmMQJVOFxgAgjeljApJRwHECKxsCBA02pMnoXUp2lpCAa3JtYVs7kiZByDglIwu2MkGFtBBJ9ymsRyeqsuSF2HIfTTxHBxZIkctMJvMEd/N1334WkqwNWc8+ePUtd8yNVgohYjgNLlR6NfF7WmnGdI9R8ZgoZ4NqNNTckFzgEZPFvQlH8QUUxDsAKufnmm00UKRM7QTTkHfrr9gwVpBoQ2OFOb/AHJi1EyMkTJDUAN29p7LvvvgVrYkzmPJ+oVfLbrrvuOjOJIwpYXFTI4bURy8svu6wgyhILzbHSmOzJicTFzGuzrocgIPC4hDmes846q0CI/VlHQ9QREl6T9VvEn++KNT6OGYGmmg1ri1dffXWBIJMzSSpFaW5Uf9cdubgg59L9ePdtzgXrtD3PO69gXZXvg+Pk3OEu5UIDi9Jdn9X9+Uu6eHE/pjQx9fV8975g1lid9VTH3a4oeyPB+ocX/AJGhMhduVXWNXna3rL+sdRMk/qbHra3yoc1GQ+JZ2dhpGP9NQ9KYn3f6QDhgMmLNAtcXVQhoYZkMNGLwfDFF1+YY6CY9L333mvv9R/np+iP4DiU9hwEGncp1hdro4goE6z7J1/Se2F9YskhXgiLk5bgz3NLApcu1isii2WIKLpfw/uf4t5eP5Bj8eexPAZrHauY21wc4BIv7fFQ2nuX9pi9HZM/r783hgwZIjfeeKMpT8iFY0VgdUIf+1Y+DXY+LglV/PdwhJqt1wyVXYOm2Fsi1V7uIem3HWlvRR9qKcYwpFeQZkHIPeXIylMQgWhRXIys45WlNBeTX6ATYGnPYf0L65WEdopyOxaH85zS3ougIYobYOm58/T8eW5JIDBE8WKROikT7tdj2z3c9/ka7sfsDffzSoL7sIQ5RixtLMO9Pb60+6G0xzj37e3+soLnwClKQbUeRfEHtRSDpLwsRawgOjqw9kO9SFr0lJSwHkluueUWsxZFxCuRosFMavEMa1y4ZymeUBZwr+JmjaF/vhGH2rysqVKAnCWFaPj3EQnUUgwOFcUgKS9RZFIkCZ9IUyIl3Xl25QkdIFijIun/i88/l/QKMhEFCqKIVV9aX8jSwPIhUlVF0TeclwsvvEDGjRtvBJG1WyzGioCKYnCo+zQGYZ0MC4PgD+qQRosgAi5H1jiZsJ/u39/eqwQKUaG4fJWy8dxzz8mwYV8blz7FxiuKICrBo7+UGIPAGgSRMHnSL9zdBqIB1hQpGkA/PsrLYcWW1qlB8Q0RoGXJ96zo8O+DNByK2uOt6N27d1SXoVOiDxXFGILEeBLQqTKCixKXUDRC+Pvjjz1m8u/oyUg0KsXGQ5GQriglgQfl2WefNbV6Sc3BWqSgg6IEgopiDIGwUMSbFIF+/foV5NtFI0d06WKu2CnVRtBNr1695MUXXzQpCYoSSsiLpRgC+aAUHiC6l+pB3Y87zn6EoviPBtoESaQCbciXo7pK3759ZdiwYaYodixAS6bBgwebajskUePKooIK7lUsSnIH2YfbFZEnyTuQVINYhbxJEuNLCrTBwiG6tCTXsxNo46uIdzyBd4FBbifRuriVSbWg4Dt5pLQ8o18lOaBUNKLtGcsLrLNX1MhnDbQJDhXFIImUKOIawmVK1RNqVDqVVWIFJniu3ikjxkRPSgmTHJNdHqMCRlFyUYAoXnXVVUX6RJYGZePGjBlTIIoVDYSOiyYunlhXp2oT/xbwSJCk7+7YX1FRUQwOFcUgiZQo4ook0pS8RKI7SyqtFe1Qcs0ptM3VviOQWMJGIC2rIIZ+kmWGiwO60SOKCOKECRPse/L5+uuvjRVIr0s3FEInwMoRRe/74xHHa8BvHiGkKANWNuUAKeJOsQFuK/moKAaHimKQREIUEQr+4VMWDGvLKR4dbziCyN94h+4ZoXCfYm3HO451mIg7lKGUiopicGigTQxAtCmT51FHHWUKS8crTHyONRDvI1TrXb5eO96Gs86sgqhEArUUgyTcliJW0wUXXGAqxVDFhpJVsQwuUnrcYeHgMuXzGQvRGqZLunU/j4EY+mkGDJ0rqKkarKXo7oofbzgXDlwomYslSxwTsBjtgVgSnMW6YmldOCoaaikGh4pikIRbFJkYKc7csWNH+eGHHyLeDipUsD5GSgnNdalJiRj8999/JjrVaQQbzyLoCyfQxhf+imJFApFEBFlTJGKZyGXOISkY/Btp27atJupbqCgGh4pikIRbFD/44AMTVUdKA+HmsQbWHyJIB3e6eSxYsMC4gIkSpP6nOx0DVxkWAJOfM+IVihowqQcrilQMileYmpyBN4HfEh4GArOctAwsZc4Ta7R0QyEIDSuc9IyKiopicKgoBkk4RZGv5tprrzXRifPmzTO5bbEGSdVUFiHBmkmLBsBYvXQswOpFCHGNucXQIZ5FkYbHpRUE5+IBATjooIPsPUVxRNFxNccj7qmJ2wzEkc+MQOJdoKzbnDlzTADaiBEjTH4iF5F33323+W1VRFQUg0MDbaKYVatWmSvhFi1axJwg7rEmLFIHaCWF6GHx0gj5vPPOMxV5mLwcK5Greiegwlk/coQyXgcgfM6FgPfgO8cd6Os+huM69fXa8TLcvwUnL5HfCr8ZInfp90gk9plnninffvutGeynzBsNhXHLK0qgqKUYJOG0FH/99VdTXPuiiy6SJ5980t4b/eDawjqkDiWuLFy/rPsohZBfSIWfYBk+fLh9S4G5c+caUUQgb7jhBtNnlIIXFQm1FINDRTFIwimKWFd01mfio5JJLEBEKRV3sBLpev/mm29qlREloixevNisv9N1n7Xbm266qUKtMaooBoe6T6MUxMUpnl3SulI0gsv37bfflvT0dHn99ddVEJWIQ5UbLsboR8mFJWuOiuIvKopRCgEEXPESck4IeqzAWtfkyZNNoAMlyRSlPKCEHm573KmkMlWEyj9KaFBRjFLI66MIeJs2bWImMZmIQGq0HnroocbdS4CEopQXhx12mHTv3l2++OILkw+rKP6gohil0CKH5HYsxVgRl5kzZ8qsWbNMObp4rc+qxA516tSRE088URYtWmSKRiiKP6goRimEk69fv97ks8WKKJJyQf4heYixWnlHiR9I4SCthdSNX375xd6rKKWjohilkNbAuiJVT8jZigW4GichXa1EJVog2AaLES+GoviDimKUsmLFCtM8lSjOWIE1UELfaXGlKNEAyfx4L/j3pCj+oKIYpZDagChSvSNWWL9unXFZMQkpSjTAvx9c+Rs3brT3KErpqChGKUTLYSXG0trc9h07zPqnricq0YJTQpClCEXxBxXFKIU1RecfdCxAYSQKNLP+SccLRYkGSGdi8NtUFH9QUYxSEEWni0QsQI4iUKxa8xOVaMEpLq4o/qK/ligl1kTRaWGEKOokpEQL/Bb5TSqKv+jsFaXQSBU3ZKxUs3HqyjutjRQlGtDfohIoKopRCiKjAqMowaP/hpRAUFFUQoK7A5lOQkq0oL9FJVBUFBVFURTFRkUxSqEY+M6dOzWUXFEUJYKoKEYpJBvHUvSpoihKPKCiGKWQ4tCwYUOpWbOmvUdRFEUJNyqK0YjHY8q8UbeRqjaKoihKZFBRjEJoMEw/RWqfxkqeoqIoSjygohiFrLW7TdCbUFEURYkcKopRCB33EUVtwaQoihJZVBSjkLVr1xpRpEGqoiiKEjlUFKOQDRs2mLXEWOq6X1FYsmSJjBs3TsaOHevXmDt3rmRnZ9vPjh4WLlxYcIzcVhQlHxXFKGTr1q2m/ZJGnkYfM2bMkC+++EI+++wzv8akSZNkz5499rOjBI9Hpk+fbo7v888/N7cVRclHRTEKIfpURTE6QeDoYOLvwEp014WNFjgu5xidXpiKoqgoRiVUs9EO9tFP9erV5bDDDpOjjz66xNGyZUutSqQoMYSKYhRCzVO1FKOfffbZRy699FK59tprSxzHHXdcid8jFz80k87Ly7P37B0svC1btgS0Tok1uGnTJvN+iqKUjopiFIL7VC3F+IQLHoJb3nrrLXnllVfk1VdflXfeeUdGjhxpCjaUxPz58+XTTz+Vl19+WV577TV51Xou64H//vuvWSP0xYoVK+S9994z78Nz+Pv+++/L4iVLSnyOolR0VBSjEK7osRRVFOOL7du3y8cff2zG5MmTZd68eUbsCMYh6GXAgAHGCnRDDdzff/9dXn/9dSOcs2fPlgULFsjMWbNkxIgR8uabb8rvEyYUtTYtwZtg7XvmmWdk/PjxJgJ20aJF5v2InOW1eL6iKMVRUYxCsCbUUox+aOu1evVqWblypc+xceNG+5H54oYYTpw40QS2UOi9+YEHSqtWraRGjRpG1BBIrEZScoAAnVmWeGEhIpak6TRp0kTatGlj/nLhxH7unzZtWkFAz5KlS41gIsJAEYgDDjhAWrduLfXr1zfPWbNmjblPUZSiqChGIbjREEWtexrdLLXE54UXXpBHH33U58D6cyCVY8qUKeb2gZYY3nDDDfLggw/KvffeK9dff700atTIiBoW3Zw5c4xIIrq//PKL8RwQrNOjRw/p06eP3HfffeZ5J598svmdcD8uWR5PdCwCuWrVKvNetWvXNuue999/v3kuzzv88MP1t6UoJaCiqChlBOFChEoa7mCY77//3liLFGQ48cQTpUWLFiIJCcbaw4I7/fTTzeMIipk5c6YROhpN//PPP2Z/u3bt5LTTTiso/Ue1o7POOkuaN29utllbRKS5oFq8eLF5L+jatasRQSfYB5E85ZRTpHHjxmZbUZSiqChGIQnWZInVEI35bUohuECJLkXQfI0jjzzSPI7AKQQO+G6xBrEAR40aVTDcrlZq3yKqbnFDYH/99dciz2F90IH7cdny1/1a3bt3N9akmwYNGsh+++1nbymK4kZFUVHKCOLyv//9T84//3yfgxxGYI3QCYTBAvz5558LAm6c8dVXX5n7AWsPMSR61IEAG+/nMAiecSC9A1F0gnWwSn0VlU9NSTG9OhFoRVGKoqIYhXhf2SuxjXv9Li0tTQ466CAjmCUNXKW4O91J//vuu6/Px7oHIu0O0CKgx5e3Ic/aVyRaVVGUAnT2jUIcUVT3aXxQp3Zts3YIWG+4Vq+++uqi46qrzBohgzU/emkSYerQtm3b4s+xxkUXXVTwvPbt2xsBJpoVCLxx3LZuiErFRau/L0UpjopiFOK4tXTSig9SLauP6jewefNms/aHFVi5cuWCQd4gkayM4cOHm3XI/fffv+C3MHXq1GLPqWRZhCTjO89bt26dsRLr1atnngM//fhjkd8Rt5ctW6adMRSlBFQUoxAn0EaJH1hjxIpjrfCbb76RP/74w6wBMub+/bfJNaQUGx1SsBCxKBHSjh07mufTY/O5554zfx1Lb4j1HPIYeR7RqA0bNjTP69Spk3HTwmTrfYYNG2bEmOchhh999JF5X0VRiqOiGIUQBOGE+yvxAUn6xx57rLHwsAIHDhwoDz30kDzyyCPy3PPPG9HCbY6btEOHDuY2InrSSSeZtUIulEjP6Nevnzz++OMmx5EKN0AULI9jHZLHtWrZ0ogpLlsCb7777jt5+OGHzXs9+eSTJjrVeayiKEVRUYxC6L6ARVFaLUylfHALCbcDCYo6++yz5cwzzihwbyKECBQXQKwhduvWTXqed56x+IDXJ9Gf5HuCbxA51gmxFp3fBvmOPXv2lEMOOaTgWGrVrm3eC6Ek+hSvAxYoUbA8hrVHHq8J/IpSnATrH0zM+OlyV26VdU2etrcsRa+ZJvU3PWxvlQ9rMh4Sz85Ci67+mgclsX7xMPhAuOuuu2To0KHGzXXMMcfYe6MbrJ9atWoZS4e6myV1hoh1SHfADck/G6y+OnXqBCSMWP+8Bi5PUi4QN16jcaNGUqdu3QK3pxtH1HB5EjiD6xRvAuKJFclFlBPI44bXRnQZvBevTX4i74fg8nq8NoLsBOfEG1jKF154oXEhx9BUFxSrE/rYt/JpsPNxSahSfu3Ltl4zVHYNyq/mBNVe7iHpt+Xn8EYjailGIawPqaUYnSAerPmRIoHFF4ggghMIgzuVyjZnnnmmdOnSRZpYr+dLEAEB4315zyOOOMI85/jjjzc1ULkQ8SWIgGhTPg7LkIhXEvmbNWtmRJTfGFVt+CzxKoiKUhZUFKMQx32Kq0xRFEWJHCqKUYiuKSqKopQPKopRCK4tqpFQHFpRFEWJHCqKUQiBEAQIUCdTURRFiRwqilEIARBOlKKiKIoSOVQUoxAqmbCmiChWlDByRVGUaEBFMQohNJ91RfLINAJVURQlcqgoRin169c3a4oagaooihI5VBSjFEQRS1EjUBVFUSKHimKUgihSTkxFMTRwgfHXX3/J5MmT/RrTp0/Xc+8nf/75pzln06ZNU8+GEvOoKEYplN+iZiXCqATP6tWrZciQITJ48GC/BrUy9dz7xyeffGLO2VdffWUuPhQlllFRjFKoUUnhZ51kQgPFEFij3blzp1+DAud0r1D2jp4zJZ5QUYxSEEVaC6kohh4KbB900EGmfVJJg1ZNFNRWFKVioaIYpVDVhvZLuP306ju0IIqXXXaZ3HbbbSWOK6+8ssTuEVQbIofUrJ8FmEeabRdlwLIKF+S2cmy0m+K9SOsJJN+Vxxd8Phf8DnEp87raAFuJV7SfYpCEo58izJs3zzSKPe+880yH9pSU8uuH5g/R3k/x77//lpdfftlM+LR7euqppwqa+foDgrBgwQKZOXOmadaLKxZLsnbt2qYR8GGHHWbE1s2IESNM30RyTk855RSZMWOGTJ061YgKgVTOd0pLKJ5PWylAcEaNGmUeR1souujTTNiB3ohTpkwxosVr05yYZsLw77//yqxZs2TNmjUFYkjeKy2kDj30UPNeDggzXfn5bKxhYx0TLMO5Isjo2GOPNcdFIQk+NwOx5PH0YKT9Fa2sbrnlFnOhULNmTenTp4/p8RgtaD9F7acYKGopRilMZEwuy5YtM5OSUn54LBH4/vvv5bXXXjNC98cffxjhQOB++eUXef/99+Wtt94qFpjDxQH3T5o0SX766ScZNGiQuc1zFy9ebO5jjB49ukik67p162TcuHHmvp9//llmz55t1kQd/vnnH3Mc3M99jpsXIX311VfNfRzbnDlzzHsRdfvDDz/ICy+8YJ7rgCiOHDnSvA4RpDS1/uyzz8zjeR5r2vD555+bY//tt9+M4PK6RJsSuDRw4ED1ZChxhYpilJKenm7KvTF5qiiGHqwwrDhfA2vIgQl/2Ndfy9ChQ836LlYmbtWmTZtK3bp1JTk52QgaIoFwuF2OPJfvbtWqVSYyk8dhDWLVccGDNc39y5cvlx0uQTXbliXKfc7zHXcrr8E2ViD30WiYYyCF5MsvvywoIo8lh1XYunVr04qMY+FzvfHGG0UE2HkPxA4xxErlgoxj5FjHjx9vxBZPAJaw05yY3ybnAsuS5ytKvKCiGKUwKe2///7myt57bUcJDgQCqwlXn6/xxBNP2I8UWbJkiYwdO9bcxiLr2rWrcWc//PDD8sgjjxgXt+O6XLRokREJb8vJcdu1bNlSLrroIrn11lvN8zp06GD2YwX+8++/5jbPXblyZZHvnHVlRxSxRrkfECleg9fHssNVyD6E8u6775ZHH31U7rvvPrNGipABoofo+gJxxVXbq1cvc4wEe33zzTfmPty4vBevx/nhtVl3xWWuKPGEimKUwlX6fvvtZybHhQsX2nuVUIE4YG35Gu4gEkTOESSsw9NOO82sIwJieMIJJ0j79u3NNpYka3q+LmIInLriiivkuOOOM2txrGeyxueAGxR4r7Vr1xrry3kf3JiO9cpfRBKw1lgLBI7t1FNPlTPOOMMcIxdUWHKIJFYj1h8goCVFNPM5rrrqKjn88MPNMZIn61ierIGefvrpZm2S12Q9lMd1797d3K8o8YKKYpTCxMPVPVfiuOaU0MG57dy5s5x44oklDsCCQ5AQKEQAV6S3ZYQL9KijjrK3xAiJ2z3pgGAhYm646HGEDzHF0iMNhzVFQHR4P/aztgxYeY5IH3nkkcaC4/MQEIP12aNHD/O7ISiINcBPP/1U3n77beOGh5KCTbgI624JNgLqwHE4Vi8iiwDzXg7cPuaYY+wtRYkPVBSjGCYhJk0CNpTQwWR+7rnnyqWXXupznHnmmeZxTrI/ID58F25RcHCLHZYc1qY37uhRB9aNmzdvbm5jXRJxjCgS3Qq4MrEAYf78+UbQnEAZjqdLly7mtgPris8++6zcfvvtxsX57rvvmkCdpUuXFgnU8QXrjtW9UlC4IEAU+cysJfrK2+R5VapUsbcUJfZRUYxicFXhdiPa0XudSgk/CA8uSIeSAkrcguNYbt7Utb5HbxAZRJHnAK5agmgIakGEmlmCSLoHsF7pdqWz3ufkUWJJEnFKJCgWItYrlh3u0KOPPlpOOumkYlaqNwi0d9oP285n4ffny8pkvwbaKPGEimIUw6RHBOF///1nctOUyIIFxLohwoDwlFRIAcFyIFfP26Li+QkucXVAcLnw4TlABCiiBgTlJCUnm/t5PaJliQR11hbJKXQEG4uOvEXEmbVDRPD66683+YPXXHON2XbeoyTMMXqJORdk7EMMeV/HanaDO9eXZawosYqKYhTDpHfwwQebv04EpBI5sOAIMOEv1hDuTSfIxYH1w99//93eEuNidYJa/IHUDCfZHbcpUaTA+iUgZqR+wLfffmv+ItZYkI6I8TwneAaLD+sQy9ApoMB9iGqg8BqO8CL8TtSrA+eEPEdFiSdUFKMc1o0Igvj111/tPUokIYgGVyYgDF988YVs2rjRWGWIDYntBMkAQTGkLfhaeyuJmjVqFIgPFhlWF6kRjtuUNTtHNB1LjUAarDgH3Jw8B3C9su6IZcsxskZJ4QG3pwE3rD/u+PaWNeq4XQkgIrmfSjm8LhcDiDRJ/4oST6goRjm4yZgAnfJgSmTBSjvrrLOMOAGl2u697z558MEHTc7emDFjjEhglZFiQY5gQFjWHukPbusSIcLiA/7Wq1evwGLDOiRq1Tke4H4sWu5DFD/88EPp16+fPPnkkybvkqR8x6pELClEMHHixL2uBeLypUSaE3GLpXj//fdL3759zWdHFHldR5AVJR5QUYxysDqobcmaDuW1lLLjCAM4IuMPpB1cfPHFRryw2p31RQQI1yrrfkSzErXqHawCe3svgmacAgBA1LEjks7rOxGe/N3fEkXHNQq1LdE6+eSTTdAOnxGx4/icakhEseJS5beENYr1SC6kO3CGY3SfH4c2rVub4ul8dj4bFibWIhdopG+QauK4d309X1FiDS0IHiThKgjuhmLGJH4//fTTJngiGkEgsCiitSA4rkciOx23IULkS8BKgudRAo6gFkSB24gCSfh8bv56ix/VcHCHIhYIVkniyD9B0iacgBVnHdF5PKkhjtsSqwx3qltEgeNjbZF8RgQR4WZ9EyuSY+Oz4ublmLh9cIcOxiJdbG0DIszjEH1veG3cp3x2gr64zWN5PgLOseFO5dgIDPP1GuUF50ELgmtB8EBQUQySSIgikyITL+W3KEodyGQeKaJdFEMN/2yi1TJy/kn7Or7S7vOXaP7s3qgoqigGiv8+JKXcwCqgPJjTXUEpf6JZFDi2ko6vtPv8JZo/u6IEi4pijEBfRdxf5LFVlCteRVGUSKOiGCNQ5xKXpNPeR1EURQk9KooxAiH3FIgmBYD1O0VRFCX0qCjGCOSlkchPviIRgIqiKEroUVGMEUwY/cEHmzD7IUOG2HsVRVGUUKKiGEPQ9YCKKYMHDy6xUayiKIpSdlQUYwgSsel0TvI0pboURVGU0KKiGEOQH0YpMVpK0UBWW/YoiqKEFhXFGKNVy5bStWtX08bI3bJIURRFCR4VxVjDshZvvfVWU/pt+PDhUWktanEBJVrQ36ISKCqKMchhhx1mkvnpxO40pS1vtPSXoijxgIpiDEI3Avrkzfv3Xxk7ZowpehwtcGWuV+dKtKC/RyVQVBRjFBradjvuOPn8iy9M657yhr5/DjoJKdGCiqISKCqKMQoVbnr27CkLFy6Un3/+2d5bfiTbosgEtLeO7ooSKegFqaKoBIKKYoyCZda167HSvn07efbZZ8s94CbROh7cukxCNMNVlGiACzQGv01F8QcVxRimadNmcuqpp8nKlSvl+eefL/cr4vT0dDMBaf6kEi3QUYY19ypVqth7FKV0VBRjnEsvvdR0u3/55Zdlzpw59t7ygaICWIk7d+609yhK+ZKZmWmEkeUGRfEHFcUYZ5999pH77rtPtm7dKq+//rrJXywvGjdubCagzZs323sUpXzh3wOt1vh3oij+oKIYB1D67eyzz5affvpJJkyYYO+NPBQrZwLS1lZKtLB+/XrZsmWLtGjRwt6jKKWjohgHpKamSv/+/U3njE8++UQ2bdpk3xNZjj32WDMBzZ07196jKOXL0qVLzUUaxS4UxR9UFOOERo0aye233y7fffedfP/99/beyHLKKadIRkaGTJ48WVavXm3vVZTygSUFqj4RqX3CCSfYexWldFQU4wSsxUsuuUQ6deokjz/2mPz777/2PZGjatWqcvHFFxtRnDp1quaHKeUKRfNHjBghZ5xxhjRo0MDeqyilo6IYRzRt2lRuuukm2b5jh9xyyy3lEgWKKFaqVEneeOMN2aVRqEo5wQUZaUoEfp133nmakqH4jYpiHIGb6H//+58Z48aNk1dffdW+J3K0b99eLrroIhk1apQ89fTT9l5FiSwI4rBhw+Tkk0+Wbt26SWKiTnWKf+gvJc7gH//jjz8uLZo3N42If/nll4iWXUtLS5OrrrpKjjvuOBP8w+S0dcsW+15FCS+kYAwcOFD69esnBx98sNx5552ao6gEhIpiHFKnTh15xxJEXEgI06JFi+x7IgPh7whzly5d5NFHH5WHH3nERKRSAk5RwsWSJUvkGev3/uCDD0qrVq3kueeekw4dOtj3Kop/qCjGKUcccYT07dvXVLl56qmnxBNhQTr88MPNFTtBDoMGDZJevXoZq5EQeUUJJatWrTJLBZdffrm8Yv3t3Lmz+c0d162b/QhF8Z8Ey5qImRDB3JVbZV2TwnWqxJppUn/Tw/ZW+bAm4yHx7Nxjb4nUX/OgJNbPsLfKF1xJDz30kLz11lty//33G5dSpKG6zUcffSRPP/20uY0rC8Hu2rWrsSgbNmwo1apVM4EQBOhQuNlZ/9F1oIoNUxPDKTJP0AzFIUi1ICmf6NLff/9dJk6caHJzK1euLHfccYfccMMNUr9+fftVKh6rE/rYt/JpsPNxSaiSYm9Fnq3XDJVdg6bYWyLVXu4h6bdFb96oimKQRLMoAsXCWeMj8IXEfiLxSN+INFiIXL1/9dVXJsGfyY1JjsmOSU9dq4o/cKHE4OKJ3zFCSM3d0047TW688UatXGOhohgcKopBEu2iCH/99ZdcffXVRoxefPFF49IsD2EEjmH69OlmnXPt2rXmqn+3JZB0Msi1xdH5ScbQT1MJAwkJCQV/GURXO0KId6FevXomDYl1Q24r+agoBoeKYpDEgijCX1OmyDXXXmssMzpqdO/evWDSiRYcQXSGojiCyEjk9xplv9loREUxOFQUgyRWRBHIXcRixPVE8fADDjjAvkdRlHhBRTE4NJKhAnHMMcfIE088Idu3b5fjjz9e/vnnH13LiyHefPNN+eabb+wtRVHCgYpiBYIAhXPPPddEpO7evVsuvPBC+fXXX816nhLd/Ldqlcn9fOedd2RzOXVBUZSKgIpiBSMlJcVEo5LXRW1UKn78/PPPEa16owQGKxwDLTGk8whBU7+MHm3foyhKqFFRrIAgjOecc46xOrASb775ZlMOTolO6Hjy9ddfm9sbNmyQb7/91uTpKYoSelQUKyi4Uqn48cbrr0t6errp3s+aVVZWlv0IJRrIsyx41hHnz5+fv52XZ4Kk5syebbYVRQktKooVmYQEU7ibijfUKb3vvvukT58+smzZMk2JiBIWLFxomkZnZmbae8RUbxn03nu6FqwoYUBFsaJjCeOxxx4r71mT7OWXXWaq3lAqa8aMGfYDlPKCdd7Rv/wi06ZNs/cUMnz4cLO+qChKaFFRVAzNmjWTx594wliKdM6nJyICqSkb5QeVft4eOLCIlehAWg31bCNd6F1R4h0VRaWAmjVryp29e5t1Rlx0RKnSyX/dunXqTi0HKJI+ZswY2bhxoxlw1FFHFWzTRFdRlNCioqgUJSFB/nfOOab7QI8ePUwB7549e8qoUSNNbqMSORKTkqRWrVoFA4gcdu9L0E4iihJS9F+U4hO6DbDO+Nhjj5ki3pSHe+SRR2TWrFnqUlUUJW5RUVRKpGrVqnLNNdfI+++/L127dpMBAwbIFVdcYQqKb9u2zX6UoihK/KCiqJQKrXo6deokgwcPlh9//NFUwbn77rtN7VSsRkVRlHhCRVHxC5L9TzzxRBk/frzce++9pot+586dTZfzSZMmmb6IiqIosY6KohIQDRo0MIWpcan26tXLdPS/4IILTCoHliSpAoqiKLGKiqISMPRjpA3VCy+8IB988IGJTiU9AKuRgJzvvvtOdu3aZT9aURQldlBRVMoMNVOPPvpo6d+/v0ycOFFOOukkU6cTy5EqOR9++KHs2VPYgFlRFCXaUVFUgiIhIcHkzlER59133zXl4XCr7tixw3TfOPDAA01jY/aTcK7pHIqiRDMqikpIadOmjenVSHujJ5980kSu0n2DLhy33HKLvPHGG6YwAIE6WiVHUZRoQ0VRCTlEqrZs2VJuv/12efvtt01QzpVXXimLFi2Se+65x6w79rK2n332WVPsWrs9KIoSLagoKmGlfv36JpXjwQcflBEjRsjYsWNNjuPkP/4wFXJYhyS1wylErgWuFUUpT1QUlbDDumOlSpVMrc7DDz/cuFDnzZtnAnFOOOEEk+P4zjvvSNeuXaVBw4bGkhw6dKgsXLjQFCMnzSMnJ8d+NUVRlPChoqiUC9WrV5fzzz9fPv30U/nzzz/lo48+Mk2O6QKBS/W6664zFiRrkbhhX3rpJZP28YdlYS5dutQIpa5JKooSahKsiSVmZpbclVtlXZOn7S1L0WumSf1ND9tb5cOajIfEs7Mw7aD+mgclsX6GvaUEClYja4/Lly+XJUuWyN9//23G/PnzjQhSPKChZU3WqVPH/N1///3lgAMOMH/3228/I7ZYpvECUbxE7bJOu++++0q3bt1MOylFKYnVCX3sW/k02Pm4JFRJsbciz9ZrhsquQVPsLZFqL/eQ9NuOtLeiDxXFIFFRDB+4TCkCwKAA+dy5c01JudmzZ5uBa5V0kMqVKxv3LH9x0SIebqHkL/uqV6tmWmNFC1lZWbJhwwYjemvWrJFVq1bJypUrC/6uXr3aXCQQiMS67KBBg1QUlb2iohgcKopBoqJYTlg/23Xr18vMmTNNDiRjzpw5snbtWiMiubm5RlT56wyEEwuzXr16UrduXfOXbW5XswSTpr7ugchSoIDn5b+lp8hwci4pUECvSaw6CqYznNuOoCN8663jRQTNsG7vsO7HAnRGUlJSsVGjRg1p0qSxJYbHSb9+/VQUlb2iohgcKopBoqIYXSBCWF1YWf/995/5i+WFICFOiFdmZqax0ty3EVBHRL1v+yo4gIg54K6l9B0Dy5W/CJp7H91G3BYtfxFexLhmzRrWqFUg1I5Y8xdRduB9VBSVvaGiGBwqikGiohg7IHKOO5bhWHIMrD0EECvT+evcZnivU7pFkdsInyN+zm33vrS0tAIL1LnN/kBQUVT8QUUxOFQUgySqRJGvcu128azYJJ7V2yRv/U7xZGZLYnqqJNSqIgn1q0lC6wbWr7Ky/YQoIDtX8n78W3KWbrJ3WD9K63iTuzeXhKZ17T0KqCgq/qCiGByakhHr5OaJxxLC3Pcny/bjB8rahs/KmsPekrVnDZH113wrG275Udb1+sZsrzniLVnXuL/sOPt9yRvyl+TtzDLPL09yf1ss687+TDbeMaJgbHl0jOT+s85+hKIoSuRQUYxVLDHL+3etZD4/Rja0eknWXfWN7BizRPKk9CT33O2Zsv3bebL2kq9kS6dXJeul8ZK3aINIXuQdBp5F62Xr9UPFYx21oihKNKCiGKPkfP+3bL3KErZ+v0rOlp323sDImr9BNj8wSrZd/7Xk/Dg33/0aKTbulB0PjJCshVvsHYqiKOWPimKskZcn2YMmyeabh0vmpBXiyc617ygbnj25snv0Itl8wzeS/elUe2+YybHe872/ZNcPC+wdiqIo0YGKYoyR/fFfsumOnyRn1XZ7TwkQLOkee4HX23zbD5L7/Rx7T/jInbpSdr8/RfJcAUqKoijRgIpirODxSN60VbL95cmSt8O3mCRmpErlzvtJ7QGnSsMZt0rDFX2k4ZJ7pMHoXlLnzTMk48K2klSPyFjfKpm7cbdse/Y3yVuw3t4Tejzrd8iu536TrH822HsURVGiBxXFGMGzI0t2D5oie6avsfcUJaFSslS79Qip+e3Fktq7q0j7RiKNaojsV1sSjmspKTccLRnv9JQaL50pVU5rIZLkWxj3/LVK9gybLZIVhq4UlrBnvfen7Bz6j71DURQlulBRjBHyFm+WXV/MsXSleKRmgiRJzadOlLR7jxNpWN3eW5yEjEqSekF7qfbW2VL1woPsvUXJ250juz+dKXmbd9t7QkfemPmyzbISPRLcOqiiKEq4UFGMEXJ/nCM5G3bYW0WpPaiHVLr9GJEaafaeUkhMkIQmNSXjrfOk8kG17Z1FyZy1Tjxz19pbIeK/rbKx17fGResmOaWwjJmiKEp5o6IYC+TmyY73ptkbRUk7uokkndZaJCnArzKjslR98WxJquZDSD0eyR4RwoCb7Zmy86nRkru6aPpFle4HSM03uttbiqIo5Y+KYiywbJNkLdxsbxTCOmKlHm0ksVYVe09gJB2yj1Q5s7m9VZQ9M3yvXQZMTq7sGf637Bo2VzzZha7f1Oa1perTp1qfIbD6n4qiKOFERTEGyJ2yxL5VlNQWtSS1WzPrRrK9JzASLCsx4aCG9lZRshdts28FR96STbLjhQmSs7rQ9ZtYvZKk33qEJB68j72njFBsYJ31umusY/U1tu3Of0xZ2ZXt+3UZWdZ9iqLEHSqKMUDO1P/sW0VJbFZHkloEUTQ7OVESq6VLQmJxUc1eak38IWD3EyMla8ZqeyufSkceIJUuOLjMYl5Abp5sPuEjWdv2JZ9jy5nvS97KMlbM2bpbdt37nc/XZex54Vf7gYqixBMqijFAHhaLDxKqpIqkB+d+TKicKAmpPtIzfES5BoQlWDkDJ8m2wbOLWGvJ+1aTan2PloR6Ve09QZCcJDU/OpNWL5K3cVexsXv8csl6fqzpxBEQ1uvt+fpv2fb6VJ+vm1IlXVKvjd4q/4qilB0VxRggz0fOYEJSoiTVzDDCUGYQk62ZkpdZ/PVT6gYnWrmTlsjmu0bbW/kkWD+3ancdLYlHNrP3hIAOjaXGcydb58J3O6ytr0yR7KEzA3Kj5k1bIdv6/ewzdSRlv+pS/b0zRII8P4qiRCcqijFAYkrxrykhNVGSDwgynWF3tnhMRGhxwUhuUfZJ37N8k+x8brzk7CpaqLzqRW2l0tVHWAfvR925AEjpebBUueBgI7re0IFj64MjJW/qCnvPXli1Rbbd/p1kryxeRi+pRiXJuL2LJB3d1N6jKEq8oaIYA1R+6GSp98vVRUadH3tJpfMPth9RNjxbdkvuzFX2VlEqtatv3woQy+rc/f402TVikWVyFYptpbZ1JO2pU4J29/oiIaOypN/WRSp1aWzvKUr24q2y7bGxIpt32XtKwLLIdzw4VjInFT8nNPit3LWlVLr8UOsLKb+GrYqihBcVxRggoUF1STq+edHRrZlJwg+GnJlrZPeolfZWUVJOaGnfCoycqctl1zuTxbOn0CWbWKmSpN9xnCQ2qWHvCTGW4ZnQur5Uvf9YSa7vw3pmjXD8Isn8dLpJEfGJJeB7vv9bdo+cI5684uupyc1qStX+3SWhNrVjFUWJV1QUKyqWlbj7hbGSJ8WDeFL2qS4JnXxbXaWyfofs7DdSslcVpl8kpCRJ+mVtpdJZlsgGWmAgQJJPayNVbznCpxs1d2uW7HrrT8md7tsyzvt3nex64XfJ+a941aDkelWk5sunS0KrBvYeRVHiFRXFikhmtiVeo2Tn6KX2jkISEpKkyuUdJbF+gGuKvGbfn2XXmKKvmdygpqTdcqRInQhYWJboVr7tGNMNxBdZs9fKrufGiezxuhCwrMddL46X3ZOKW82JkizVHugmSae2sfcoihLPqChWNLJyZPeL42THoCnWRvEAm0qdG0jlizuIpAW2bpb92VTZ/tF0e6uQGk9YgtIuyCT9QKhWWar0P0XSDvf9nju//Vf2vPabvZVPzruTZMfHM61bxc9H+tUdJPWKzlwt2HsURYlnVBQrEjv3SOarv8n2Z36TvN3F3aaJGSmSdtnBktg2MDehZ8Yq2fb8RPEUSe1IkOpXHyzJBKYkRlZQEvetKVX6HC9JNYuXv/PsyZWN944Sz5/LzFqjZ8oy2XDbT17HbmEdctqRjaVK76MlwZ9C64qixAUqihUEz7KNsvOhUbL1kTFmfc0XlY7aVypf0DEgq8izcafseGGiZP9dtGlwpTYNJe3x0+ytCGMdf+oJB0rGdZ0lobKPqjm5HtnaZ6TkTlgsW++3BNJH8E1y7QxJv+sYSWyj64iKUpFQUYx3MrMl+8e5sv26obJtwO+SZ1mLvkg/q6VUG3C6SN0A1v4sSyv7m9my+8e/TT6gQ/I+GVL1sa6SEOi6ZCjJqCRpt3aRtO4H2DuKkjVlhWy96RvJmozFaO90UfWGIyTl9DYBXSAoihL7qCjGMxt3yO4Hf5Et13wjO0cutnb4mP0lQape0l6qvnK2ZRUFuPa3aKNsffBXyd2Uae+wXi0lSdLOaSfJJ7aMuNvUm4RGNaTqc6dLso/qM3k79kjW7PXWRUJxN3L1y9pJ5XuPtsxdzUdUlIqGimI8kucRz9+rZUuP92XLC+MkZ3UJxb0tKyj93IMkY8CZkrBvgDmPlgW69eKPJYeOES5SWtSWjDuPloRqvsuuRRrcn3U+Osdvga7Urq6kDTjLMhWj4/gVRYksKorxRE6e5C7eKFlPjpK1bV+X3RN95+QBLs5qt3SRaq/3EAm0OPfubMl8erTsmlK052JiRqpUf6y7yAG+O/qXFwndW0iNB46VhLTSu3Ik16smVR89VRJqBVk+T1GUmEVFMV7IypbsobNk29VfyeYnxolHihf5BvIQ07o1lZqvnyXpz58mUr+afY+f5OZJ9k/zZNs7U+0dhVS75XBJ7tHO3ooiUpKk0tWHSeWj97N3+KbSaQdKyglN/bYqFUWJP1QU44H/tsqOW7+WLb2/l8yxS0zagS8Sa1SSavceKdXe/p8kn9W2TP0M85ZslJ1vTJDctUUrv6Sf2FTS7ulmmVtBdO0II4k1q0hSw9IvAPKWbZa89cUr2iiKUnFQUYxlaP008h9Z3/l12f7utCLd7b1JbVxT6n19qVR56jRJpDFxWaIqcywrcdgc2f3rErNu6ZBcL13S+h4vEq1uR2qfjlwku4f8be/wzW7rgmLPe1MC77+oKErckOCxsG9HPbkrt8q6Jk/bW1z9p0n9TQ/bW+XDmoyHxONKc6i/5kFJrB+BkmaZ2ZL1+XTZ1m+U5Kwo3uYIElISJblJDcno1VEq39VVJC3IDhWWWGQ+OlI2PznO3lGIr3qj/uBO5ShKgvnPm3qDz5bEyw6zt/yDVlZbzhksmVOLroH6IlFSpPYPF5k6qtEGnTq6desmY8aMsfcoSnFWJ/Sxb+XTYOfjklCl/CKpt14zVHaZClr5VHu5h6TfFr1NutVSjEX25EjWe3/Itr4jSxTExKRUSww7Sc0hF0jl+7oHL4h7AXEryygZT7HHmpEboBW3PVN23vGDX4IIFEjfduf3kjf3P3uPoigVCRXFWMOyEHf3/1W2PvSL5Li6Ubip1L6e1Hzvf5Lx9KmSdPh+JtCkQpKbJ7tfnyA7vp5r7ygkMT1FKrWqJYk+rqCz5m2S7feMENmg64uKUtFQUYwl9uTKridGy7ZnfpPcjYUJ8w64MKue21ZqfnelpF56cPSu8UWI3NHzZcfrky0Ls/gKQUqbfSwr+mJJbtfQ3lOU3aMXy86XJ5bcf1FRlLhERTFWyPNI9oh/ZNdH0yRvl49i3tUqSfWHu0nGBz0lYd9a1o7wpBUkpKVIUq20kA0stmIkWPKekVr88bXTTPk2f/Assay953+XnJXF3cuJ1StJzWePl4SOjaXmY8eZbW88WTmmKXHOrwuLBBUpihLfaKBNkEQq0IZ0ge2Xfym7xlOurShJNSpL1buOlrS7jg3v2iGVcmb/Jzn/rLV3BE/O+EWy5c2iOY98noyrOklK56KNjhMsoTfl43x0vyhCZrZlUf8i256fYMTNDdZ0jf7dpfK9xxvxlbw82f3YKNny6Fjr3uL/FKocd6BUG3yeJDSuYe8pPzTQRvEHDbQJDhXFIImUKO55/TfZdOtP4vEUDU5JTLcsxMePl8o3dAm4B2I0kPvRFFl3+VB7K5/kxlWl5ltnS/LpB9l7AiP321my8dpvJHf9LntPIRn/ay1VP7pQxDpvBWzLlG0XfyI7f1hg7ygEEa12e2dJe/FsI0rliYqi4g8qisGh7tNYYE+ObH/o92KCaNYQbz9KKl93REwKYlhYtVU2XTncpyCmNq8pVfpZFqJbEIHGxA+fICn7Fk/uJ+J121t/Sd6Qv+w9iqLEMyqKMUDu4D9kz6at9lYhlbo0krTLOliTfHjTLWKGHZbFd9NQydlSPGo0ITVZqlx5uCS19R1Yk9y+kVS59gjzOG88Wbmy8c6RkjdtpS8Pq6IocYSKYrSTnSvb359ubxTC5F2pa3NJaFHP3lPBoUj5W5Nk9+il9g4XiQmSduqBUvly6wKipPSUSsmSdsXBknay79qnuRt2yPbHx4hndfGLE0VR4gcVxWhn0XrT98+bhOQESdi1Q3K+mCY5n00N+fDMiaHk9TyP5Py+RHbg5vTRRDmpchXJuOdYSWhcenushCa1JP3OYyQpzUfbKOs9MscslKwh1gVKZvHoX0VR4gMNtAmScAfaZL83WTbe/L14Mr26XljGDOkMNPUNB7X6HiPJdx1vb4WPUATaeDbslG1XfCa7RvhOn6jz2umScsNRljr6cQ1IfdcBY2TDfaPsHUVJrlFVan1/iSQdtb+9J3JooI3iDxpoExxqKUY5e+ass5TRRzk0a+7P25EtuZszwzKKiXC0kpsne976XXb9uMCHICZIxlktJOXmY/wTREhOlOS7j5P0kw6wdxQlZ8t22X7XtyLbd9t7FEWJJ1QUoxl6Fy7YIh7rr+IDj0dyvp8rm/uNt3cUJXX/2lLlkVPsLf9JSEyU9CdPk5T9fLtbd/+xWnbd96PIjix7j6Io8YKKYjSzdbd4dhYv56bkkzdzlWy9f4RlNBcvxZZUq7Jk3NNFktqULRApqV1DybjTen4N3xV0tr0/Q7IGTzPuVkVR4gcVxWhmd7apdxrPJFT1r2xbMXJyZcdrf8ieeRvtHW4SpNLhzSS1Z4cyNVI2VEqWShd0lNTDfa8deqia88l08SzeYO9RFCUe0ECbICm3fopKhUMDbRR/0ECb4FBLUVEURVFsVBQVRVEUxUZFUVEURVFsVBQVRVEUxUZFUVEURVFsVBQVRVEUxUZFUVEURVFsVBQVRVEUxUZFUVEURVFsVBQVRVEUxUZFUVEURVFsVBQVRVEUxUZFUVEURVFsVBQVRVEUxUZFUVEURVFsVBQVJUZYtGiRDBkyxN5SFCUcaJPhINEmw8GTk5Mju3fvlj179khubq4Z/Cw9eXmSbd3H/XnWbYihn6sSBmi0DElJSZKcnCzJ1t+ExERJtAf7KlWqJGlpaWa7IqJNhoNDRTFIVBTLzubNm2XOnDny119/yZ9//ikLFy6UtWvXyrZt24xIZmdnqwgqpYLwpaSkSJUqVaRGjRrSsGFDadWqlXTp0kU6duwoLVu2lIyMivXvUUUxOFQUg0RFMXAQvDFjxhhX4MSJE2XNmjXSrFkzadGihdSrV0+qVatmrvRTU1PNlT8THxaCM5SKiTNV8ZeBRwEvAh6GXbt2yZYtW2T16tXyzz//yLJly6R169bSvXt3ufzyy41AVhTLUUUxOFQUg0RFMTB27twpzzzzjAwaNEjWr18v//vf/+Sqq64quKJHCLnyZwJzi6GDimLFxj1dOeKIax2BxLOQlZUl27dvl+nTp8sbb7whkyZNkn322UcefPBB6dWrl/3M+EZFMTg00EaJGFiIN910kzz11FPGIvz111/l888/l5NPPln2339/qVOnToGVyLoQ4oilyPqRMxyx1FExh/u3wG+D3wi/Fdyn1atXN78rvA7nnXee/PTTT/Laa68Zwbz66qvlkUcekT2WaCpKaagoKhFhw4YNcvPNN8tnn30mPXv2lC+/+EKOPvpo+15FCT2I5dVXXSUff/yxHHHEEfL888/LCwMGyI4dO+xHKEpxVBSVsJOZmSlvvfWWEcQePXpI//795cDmze17FSWMJCSYi6+BAwdKhw4d5M0335SRI0ca61FRfKGiqISdKVOmyEcffSRNmx4gL7/8suy33372PYoSGdq2bSsvWlYiLthXX31VNm7caN+jKEVRUVTCClGB33zzjSxevNiajF4zQQ+KUh4c3LGjWdP+7bff5JdffrH3KkpRVBSVsPLff//J999/L2eccYZ06tTJ3qsokYfI5hNOOMFYjViLRKsqijcqikpYITF/5cqVRhQrWhK1v7C+RY7dpk2bTN6dEj5I7O/cubNMnTrVFI5QFG9UFJWwgqvKqTJCGH0oIDmbiEJnYI0GAxV0nNcaPXp0QML0999/y6effmqeO3bsWHuvfyCGs2fPNsEfrLW+8sorJoXgjz/+KJMVg7A6n4Mxf/58+57ikCP69ddfm8fh3qaSUEWA1A08FkSmUkBCUbxRUVTCCgLWoEEDk4MYKn788UezJuQM8h2DgYICzmthQQQSmUjlFN6f586aNcve6x8I4ksvvWQCkVhzXbJkiUk6f/vtt2XChAn2o/wHUXQ+B+Odd94p8bPw2N9//908jvei5F5F4cADDzS5sDNnzrT3KEohKopKWMF1SkJ+qFynWDRz584tqGbCYHJjkg8G57XKSqDPJYn8gw8+MFZp5cqVpbVlSbPWlZ6eboSM9BUs2EBxPgdj3bp18tVXX5UojM7jKhp169Y1Sf8rVqyw9yhKISqKSlhhnQyXFRN/KMCy8XZvUtYLqyuWWLZ8eYF1hjvvtttuk9tvv12OOeYYs4/qP6W5P/0F9zXWulIIF2m48ikooSjeqCgqYYXqIU4902DZunWr6aYBlPSiNByTG8UBsB4Rkr1B8WisVyxObgcC6SWrVq0y63HBWlhudyXu5VS7rF3jxo3tvfkXFMHC+ce9G4x7lIsQrE6OJ9DPzXNZ86VQt6+1Wl4PK5/zyvn1hvvJKeT5fM/WDvuessNFGvmKZbHElfhHRVEpE0xWeXtZe6MfIgWamexDIYozZswoKNG17777yvHHH28El2NhbY+JsyQQhffee0/uuusueeKJJ+Thhx82RaL9qW7C61KF55577pHHH39c+vXrZ547efJknxO9P1Cj04EoSASBc+WOiCRAKVg4N7wmLmanJ6W/YGG++OKLcuedd8pDDz0kDzzwgNx9991mrZLOJm44h6TecF4fe+wxs746bdo0c67YZp2UCxrWUHktgotYQyXAiNflvN5///1m/07rO+a8suZJvVJe49FHH5U+ffrI5198YdaAgwGvBaLI+VYUb1QUlTKBy7J5ixZGaLjK9yUONAgGp5hzMGDVEYTC+2AdHnDAAaaeZa1atcz9TNJMsr4mfo7vueeek3HjxhX0amRCxPr55JNP5MMPP7QfWRReiy4LTNgIBIKMteJYm3x2Ik73Jqq+wMptbpe6w02KoHAsRJ5CkyZNpE2bNuZ2WeCi4dBDDzW3+axEWmLh+gOf8YcffjCRsFyIYKHzGuzH5YhYDRgwwAQIOZ8d8eV8Ll261Izx48eb84OV6Jxvzh/njQsY3N10SuE7dV4bi5ELjXet/aNGjZL3339fli9fbp7P4MKGICuiZYOB3492W1FKQkVRKTNETN54441y4YUXmtqm8+bNM5OjgyOUCGKwkxATrZN6UbVqVdNqCisRYQQmZ6whbxcckylpBwgj4HY98sgj5dRTTzXrd7Vr1y5x7Y4JnE4LWCYcPwEa1NHkuTSxJawf115ZRBHOPfdcE1gDP//8sxESwIV60UUXBZ3CQlsuxBU4f6zHur+fkuA8fvfdd0bE+Nzt2rUzSe/0JqQDBeB+psMJ58gbzgeCyfOJOiYdh+cR8enAOUVgWU8lh/Woo44qOBdYmLw255v35HwfdNBBBb8hLkR8uVr9JdjzqsQ3KoqKgatwJkOu3ANZa+OxWA733XefXHnllfLkk08ai82afYtYbcGIIpPsggULCtbYELJmTZua2wic45pF3LytISZYJ9AEQaSlEMd5/vnny6WXXiqXXXaZEVdvEPRZ1vlwiymPv9x6PF0+eI0zzzzTCHRZwNLGCvO2bLHwOCaEJFicz+sEOSG6e0tYJz8SK5GLCTjppJNMv0tE+pJLLjEtmNq3b2/u41xjufmCCyGiaa+44grznHPOOafAqgeEiSR6ziPizffh/swIKM/hfbmPc1K/fn1zH7+5YHJT+S0G83tU4hsVxQoKV/gU6b7mmmuMmw1r4MQTTzSTIFf1TM6lDW/XHlfuuL5Yr+PKnhY9JjAiBODy/PfffwsS2ul2kFalirmNQNJhHZjIOQY3CKVjHfEZDznkEGPhAX8PPvhgOfbYY822G1x6q6yJ17F2sQwRAwJiAKHBSsViDRTEhLU0LDdHfBzY5ngRDSyiYcOGmYICzlpqoCA0XDgA3wcu2tJei4sAXJZAABBdTRAzRI5jatSokREr5xxSschXoQEsxNNOO82cc9ZPnddw4GICUUS4gZQdXOIO3N+pY0fTMxH4nt2F5INNwVGUklBRjHOYYJkMmYgnTpxoAk0QNNa0cH0OHz7cuMKYuLp0OcJMTt6NfUsavuAKnMkvMYRX4+vXrZOFCxfaW/nJ11iNDCxct0BjtTqNZPnsTvAN1iDPc1x0Dhzj4Ycfbm8VwkTv7qSAe889qQOh/YhESefCF7gNyUHk82AB16xZ01xEcKEBrMt9++23Zo2UHENuY1GWpcININ4cuxO0w+vjqi3J5Yub1bmI4CLA7fJ0QPAcNyoXDb6sNlzACHJJvwGOy13QgXOIEDqPRwSTXcFZ7HeEGJxjVJRQo6IYx7BmwwSI9Yar78QTTzBrRawzYSHSdNWZdKnk8u23w43r05/hnRdImDsWyUP9+smPP/wgvXv3LhAgJrBAIx/dTLeOz72G9MYbb5iIRGcg7A5YQZPtYBUmbMcqwsXquBG9cbv1HHguLk4HxMsXfG7HmvEHXLmO9YoI4JLFPXjttdcWCBePGTJkSMH7c8HiS5z8hQsgvhsuDBBDokBxR/vCHVWKFedL1BwBc/B2WXPxwHqg90WEG163tIsJX9HKJQlsoHAOVFSVklBRjEOwoIiovOGGG8x6DlGAWCLPPPOsifijksqblrBwP25BrsrLOuEw0RKwgsDyun3uv1/2xw1mvZ4zsSGIZZ2EsJCc3EQHhM49vIMuiDLleUy6jhByDI4r1BtfIf481y1EJbmCWd8qyeryhhQWLDVH7Jo2bSodO3Y04sH3c+kll5jvAljfBS4sEDW3lRQoiDbfkeN+5BhI6ncuGNxg/To4rlxvOJe4lx3cAgn8lrwt8mhCRVEpDRXFOIJJnyAJovnuuOMOIw4EKGAtEh2Ku5TJEYskoZSreH/BhUb+GZGCWDqkGLjFFWFhQua4ShKkvYEF67gxsdaIdCXgw3uwLugEzODOwz3pWCyAqOEm9uWG5D284bhr1Khhb4kpDuANYsp7+fvZmIZ5rDMhY4m5raXWbdoYi95t0WIlsm4ZrJXEuWMtkNdB1DgXbmFzcK/bYU36EvxMSyxJq3BwFxxwCPZ4wwkXMnwHgVj4SsVBRTEOcCY5hBDRIDUCkcLaIOmcYAdchKW5qwIF62C+9T5EDyKyJU0wuBeZhMqyJsbnIrrRERECgggE8jVIGSAwBBBAhI7nYY0Btzkfbvcg+3D9kcDvDZYZr+dM7jwGy8o5Fv4uXrTInGt/4fwjtI4Fzfqd20rlvbAU3VYWa6budb5gYO2VFIfSBAur1LGQcfPSBcQtjHyP48aPN8cFCGI0W4W+4PfBbyvWjluJDCqKMQ6uOJKZu3XrJl9++aWcffbZZgJ/9tlnw9rlnok10Q+RRQSYhHxZJXuDPEjHIkGkmNRLWqdCwFgr5biY8Fj3xE2IZexUjyGqcvDgwTL1r7/Muh2J8qxPekeAAlYnUa7Oc4nKfPfdd03KCpGwdJb4ZMiQgjQRf+E4nQATrEyCbkiTQFxJmaANFZaxI1xEWZLYz7kIBWeddZZPy84BoTjllFOMgCPEnB88DRwjVWoI/uF4APEk1zLW4OIGofe1lqwoKooxDJMq4sfaIKJBSS5C/Uk7iBYQAYTb17pdaTAhU03GAcEzbt8SrBw+P25GZ+2NqFMsLCbuiy++uEDcsH5etyZ6yokhcoiNE/npDVYTFxu8BkLrtHVCKHguoku0biAWOK9JNCjWIlYX0bK8JseDYPOdsq6HMDkXNVwYIEZUlgkWLHxeuzQriQIFrHVyjFj5X3zxhfnMjBEjRphzgQeAc+OdmhMLEICGG9sJbFIUNyqKMcomy5ogvYJyW127dpWh1qR5wQUXRN3VL+uOWD6B5pVhgS1atMjcRghxg7pD+H1BsjiTNRB8w7oiFioWHwFHTOAIGFYCAsPEiJDefNNNBS5Nt+gisLgbcUUj7lipWL08l8dRjYXcTmcNsCTBdoMFiqv3uuuuM5MyAkMeJu5IbiP+l1giTkI7EcJOHh+WLUJcmhvVn/fnM3A+cKm7H++2wHHhshZNjiICzXtyUeNY1JwLoma5373+WdLrObDPeQx/fT3GwdeFhvvxgVyIeEOOLr+LFi1a2HsUpZAE6wcf/GJFhMhduVXWNXna3rL+kdRMk/qbHra3yoc1GQ+JZ2dhBZj6ax6UxPqh6R1YEkxOBE2MHTNGbr/jDpOWEK3rI4g2BaGxgphEyxsmd1yriCaCzUWEP2LCPxPEEMuSCdlXzmOgIIJYm0zSrMkiNu7oz7KAcJSUelJWWHel9yAXDgTiBHuM5QnfY9++feWFF14wFjDu5HhjdUIf+1Y+DXY+LglViqe4RIqt1wyVXYOm2Fsi1V7uIem35ReUiEbUUowxcAmS14bbrfedd5rOAdEcMICLDdGhOouvtbtIw7nCojzssMMCSkXhcayPYh1iaYXinCNgCCEBRFTWwXLkdYMZ4XCdE8HL58a6jGVBBNaVSfEhGhcvgKJ4o5ZikETSUmSdjKvcLz7/XO6+5x7TlLakpPJoAdcprkJqkJIuEotrUJEC4UV4uOgpC08//bRZsyRiVCkObnMCmYjSvv76602d3nhELcXgUFEMkkiJIlYWveiY+G6++WbTzw/LINpxJiIq3LD+Ru1Nf62zigbnhXVhIlLLAmuuFM1WUfQNaUtccBBJTGUnp2ZuvKGiGBzqPo0RSAGgrx/CQjPWWBBEYP3t9NNPN6kRTPZExyplA3frcccdZ28pgcK/H+r/4rlwarcqijcqijEAgQ64fHA9Pti3b8yt6+Dixe1LTzw6sxNF6avEmFI6MeTUiSpIwaDbP6kv5PFS4MKpfqQo3qgoRjmEjhNdSoQi6yDtO3Sw74ktCADB/UtqBZ+H/Ep3qTBFCTW47qdPmyb39+ljfm+kwvDbKykvVVFARTHKYe2DNTki5VgPCSY/q7w53voMXK0TaYkblaT6119/vaC9k6KEClJncJde2auXDLH+/VAf97XXXitokKwoJaGBNkESzkAbEthx9dDRgOAJp45nLMPPDXfwq6++airwUDGFXEEKerPuSP4fwSIkrVNJBjcXOXyspxGIEs9BOlSbKS3Qhs9OisuYMWPsPUUh0Ib0iSlTCoMa4g1+PwysQIov4Ekh55TiEFQDosjBr7/+akr4EZxGVaBHH33UXFA6hR3iHQ20CQ4VxSAJlyiS2E1pr9tuu81UY4nH8HEmsHfeecfUaqWiC4n1THJMdnx+RkXDEUWsaad91N648847TTI6ouhujFxR4IIJDwrFBahCRBAa54JzSeWd0mq9xiMqisGhohgk4RJFggNuvfVWc8VLCyjKf8Uj/PwIladpMYUJmNSplZqVmSnZljhiESCOMfQzLTO093JE8ZlnnjGWj5tXXnnFdPr3LsKN9UhZOISAc8VrxDsIYaJlOSclJ0uKNSqnpRnvApYyHhUuKrz7PFYUVBSDQ0UxSMIlioSOU4IKS5GqNU5tzgqF9dPMswY/0YoginzHwbpPKXxON4t4x3GlI45KUVQUg0N/UVEKATZc6RIxVyEFEexJD9cY64rxPkIBQuHrteNt8JtQQVTCgf6qohDW1bAWOnfubAJPFEVRlMigohiFUCOUNUX67uESq7DgPs3LM4E39B6M9xEKcDP7eu14G85as6KEGl1TDJJwrCnSBJZegnTSJ2AgnuHnt2bNGtPAl9wygm7oL0jfQtI1mPx4TAz9TMsMdWGDXVPkAuKMM86w98QvznoiblTSdkjfoYsJnUaaN29uikXEekePsqJrisGhohgkoRZFLEQ6HRx++OGmy3k8ryfOnTvXRFT+/PPPJuIUIXRbARVBCL0JVhQrakqGWyDpJ0kkKgn7pDPFa+R2SagoBoeKYpCEWhSHDRtmEo0pR0Wd0HiDnxsl6xDDN954w+wjWR9XcZcuXcxVPpO7O3nfCapAFBjxSihSCFq1alUhkvcdt7qTvI93gcpI8+fPNxcN9ExkH78lOspQBIPfVEVARTE4VBSDJNSiSAoG5aioYoNQxBXWT2289bmoMDJ16lQTSIRlhLuPZrsVHSbuYCGPkUT+ig6ueDrrc5GJR4JC4A888ECF6OepohgcKopBEkpRpKJLjzPPlJmzZsmKFSuMpRRP/PTjj6Y58tatW+Xmm26Sy6+4wkziihIOcMMjiNTbpTPLkUceKc89+6wccuih9iPiExXF4NDo0ygCt+KGjRtNkEC8CSLurNvvuMM0eO3fv7/c0bu3CqISVnC7t2vXzpRIfOSRR2T8+PHy6GOPyZIlS+xHKEpxVBSjCFopUdj46KOPtvfEBwQPMTExGT391FOmHmW8ib4SvbCWSFWo3taFGEFdRPmyFqkovlBRjCIcUYyntURcWD/99JNMmDDBiOENN95o36MokeXee+4xnVjee+89WbBggb1XUYqiohglEE1H9By5eR1itJGwL+h+8fXXX5ur9fvuuy+uo0eV6KZW7domRYP0n48++sjeqyhFUVGMEsjRo88gVf7jKel4+fLlMnr0aNPFYb/99rP3KkrkYY0RLwwFMbAWEUdF8UZFMUog14rEa3q/xZM1hSCSY0jSua4jKuXNvvvuK4ceeqiJgP7ll1/svYpSiIpilOCIIp3C40kUSSTHQtRIUyVaYHmCRsSTJk2y9yhKISqKUUK8WorUcKWqSM2aNe09ilK+YC3SoX/evHn2HkUpREUxSiDAhjUO1hTjCYp9Z2RkSJUqVew9ilK+1K5d29QU/u+//+w9ilKIVrQJklBVtKHsGaWo7r33XrnlllvixlrMSE+X0884w1QVoYtBKPnxxx9Nl3nnJ0yA0mWXXVZqoBL5aQMGDLC38qH011lnnWVvlY05c+aYxtBwxBFHyHHHHWdulwYRx7iXf/31V7NN2TuaSgfCiy++aIK04PLLLy/RTb106VIZPny4qZpEjVU6sURjr06+n3feecdcIPI9nnbaaXLAAQfY94YGCkhQ3YbC4fFoLWpFm+BQSzFKoLgxkxtWVTyRaU1yFPUOR7cPIlv//fffgkHVnL3ln02bNq3IcxikwgQLkcPO661bt87em+8WRywHDRpkksYRJwdEkcc6z+M1AuWff/4peL4jjr7gOBYuXGgex1/EMRohrxWXeziPEzEk+Ctaz4FSvqgoRgm0TGJSC0WnhGgh1xJ6JjlC4RmR4Pfff7dvFYdjQRQjCW7xGTNmmBJjBHZQ3ccBbwATNBYR3zvrXEr4SU5ONuee34OieKOiGCUgilzNMznGi+s02xJFcNo+RYK///67xJ6CNDCmvmy0wHnp1KmT3HTTTXLzzTfHX1eUKIULtHj5N6aEHhXFKIF1MdxpXMXGC86VOBNQpCYh1qRwo/oC1ypl9KIFzglBH61btzaDvpLRwB7rHOKa9vdc8duldyGuYc4x1rA/VhhLBlykRPp7ieRFmhJ7qCgqESHckxCFARz3I3VWsbzdIJb02MMah5JSREjovvvuu03x6E8//dRM3G6wRGlay/0vv/yybNq0yb6nOM8995xpFO2sI+7YsUPef/9981z+IhwE2bDNIBCmvOD8EOz1+OOPy8233GKaXN9xxx2mNN/nn39uPqd3TB5rciNHjjSPpQ8on/WJJ56Qu+66S+655x6zlupL7Cj9x2veeuut0rdvX/OcO++8U55//nkT+MLFYThRQVRKQ0Ux2oidYOC94kyi4Z6EeP0mTZqYwgeA+5QgDTcEsTjixDpex44dzW1vdu/ebQSA4SsQA7Floud+IiRLm8B5DI91hJXzgTCyH8uKbd6jtPcLBI6H9/M1eN+SjnWXLW6UPuO88RkJjuK8klJDZ4kPP/zQ9Ph0vlPe69tvvzWNfJ39eDmc1Bu+A2reDh06tMhvmtejiTaRw84FCkFYvNfs2bNl8ODB5rUVpbxQUYwWXBOHEjj16tWT/fbd17jGsHrcqRr8JcLUyUtr27atKSgQbs7v2VMuvvjiArcoYkzKxTXXXCMnnXii2RdKvvnmGxk4cKDP8cMPPxjB94Zz869lnY0YMcIIJxY36SnXXXedXHnllbL//vsbi5bziXASOAR0dMFNjYAiapTxu+qqq8zzLrroIlMAnudNnDhRNlqCDzwXgSW6FKgqw/ngOZwTUlkQRH9cr8GglqJSGiqKUYITlOJM5EpgYNm0btPGCA+TKr0bcdMB2+QROhP6ySefbP6Gm46dOslhhx1WEFGMeLB2SL9MjjXU8Jlx7/oaWMnermDg3CBUCCJiccMNN8iZZ55pciaPPfZYubN3b3MBgZWJCGLpcZtcPyxQIM8T8Sf3Dwv8+OOPl8MPP9zcx3s6IoiQ0gmf3zjfF4LY07pw4BwhiLQW4/kqWkp5oqIYJTDRMGkmhyGfr6LA5OzkeTJ549YDLEdcc4CLtXnz5uZ2JPA1we9t0sf6QuDmz59fbODepJi1L3BdIsC+Bhagr/clDYjXhZYtW0qLFi3M+2NVcl9qpUrGCgTO42+//Was8aMsAXz00UfN6NWrV4GF7riHCdRx4PXA7SImwKhLly7mIgY4No6Tfoda/UgpT1QUowREMdGaGPQqueyQ79e+fXtzGyuGwBomZBLcnTQNLJJoBzcv625PPvlksfHCCy8YV6YvcFs6QTve47zzzjPuSm+w3py1RlJWCABibdE9Zs6cae4HxzrMsASMYCWEk+MhSIj1wFdffdUE65B87w1i7hQYwPps2KCBue2G4vFYkYpSXqgoRglmYlJBDBosDS4scNERyYhlMnbsWHMfViTWZLxCibdmzZr5HFjIvgoouHM6cTfjIvUe7ipBTnDMOktACaJhvRLhRBSJ+uVCBEuvWHSv9X0giI4L17QR8/F7L8miVZRIoaIYJRhLUfOngoYOCASHgFMuDEsRmjZtGlCADcLqvcbLGly4132xeHFZnnrqqcUG66HO5wsFtWrVsm/lByBRe7e0ccEFFxg36dhx40z1IEQVC7RHjx4mfeOxxx4zKRnt2rWzX9XG+l0jeE4erq+gH0B0HctVUcoDFcUoATFkMgj3hBvvcGHhrIERWIMVg3XCftbLiIosDSc9AJj8neAcB1yAvgJWQglWFsEuF154YbFB0XjST0KFu1UZn7VVq1Zy0EEHFRlOqguQC8rjsAid80A1nnPPPddY4Q0bNjTrhb5+x5x7YyFakOCPu9YbLmI474pSXqgoRglqIYYOrBRH/JwJlokaNyLiWBp08nAeQ24jw5ngsYpYPwtk0uZ7db5brEwsoWi68MGlzDoeEMRDfVbn83GcuFTpcPLss8+a5HpHDJ21RajqKmLPhZ1TqN2Bzw0IptMphaAbgnacwBvei+AorE9n3VFRygMVxShBRTF0MNHjCnTToEED41rdG1hhTqAHaQfk/o0ePdrk8dHlAldsIKKGZeW4DJnsx40bJ19++aVMnjzZ7CtvWGc88cQTjQWHoPEZP/vsM5OmQfI9SfuO+xm3LeeVz8NFhsNHH38sP/7wg/lsw4YNM8E67o4fFGHnNbA46XrPRQfCO2bMGPN+5D86gTqBnl9FCTUqilHC/9s7D/goyvSPP7vphQTpKEgRDgERDuyKvaCHgiKIKCgqWBAbeoceYjlR/HMWVLAheHcCFkQUPDlFULoCFgREEQSRXhPS2/7n++5MWGIoIQk7s3m+fsbd2dlsZjfL+5unI4pmMdAFodwgaizeuEKBhR+34KGM5UI8qZsDMleZcIGIsdhzHzEoyzQLnoslhhAgOlhjn3zyiZmj6Ab43rVr184kKHGuWLKIFUk006ZNk2+//dY8j8/lyiuvNJ8hiTQdOnQoLqegpOMD6+IBMaVTDZZiaAYp1jUiy2eAAFMDCZRvUNw/adIk0xKOekpinFqSoYQTFUWXwAKOW6pIRfGQYeHlc2MLzaxkoSdW5lh9LLIl27rxMxxzjjvwOn1695bOnTsb64l9xJHXZIoFwkA9nfO7HVer81psJc+FJBREBxFxzpWNY6HnEfpzhwpC5vw8r7c/eG3nefzO0OcidBTfM6SYeCaWIC5P5/yY5EGfUspdeL+8Fp8FZR4kBfF8BJ9YI+dDfJF+qNQ9cozXcWKzuLWZCkLCDr+L13Jik/y96GyDRc958lqH85koSnnQyfvlpKIm79MYmg4fuJLKOn3drWAJICA333yzvPzyy2aB9RLEu3Ch4urDdch7KQ8IA1mXCAsZm46gug3ifQw/RpDI1v1DeUUIfEbEAnlfPI92e87fmWNMwUD0uEgpmeTE407cllZ4/K4jIYK4sfEkcH4VMWDabejk/fKhlqJLcK7AnatmJfwgXGSskrhTXkEErB+EgddyqyACLkzczXT+OZAgAp8RCUyIDHWSoRc+HMNaJIO1pCACViTJN1igiKJahYobUFF0CY4oOi2xFEVRlCOPiqJLQBS5csbFptl3iqIo4UFF0SVgJTrZf4qiKEp4UFF0CYgi8RgtXFYURQkfKoouAVEkEUNFUVEUJXyoKLqEoPs01nVtwBRFUaoSKoouAddpQkKiqe1TFEVRwoOKoksg85SOJ3v27LEfURRFUY40KoouIWgpJkh6erq6TxVFUcKEiqJLwFJEFNVSPDLQlozm1c8995zZSk52iGRw0X/44Yfmfb/wwgvy66+/2kcURVFRdAnUKNKYmTl1ailWPgggo46YfMH29ddfy7Jly/b72dN+j+cw3oht1apV9pEg/BwTJZzjofMEwwE9W5lawbkw9ir0Yoterpy/897xTiiKEkRF0SXgPqVXJENdlcoFAVu9erVpeu1A1i8jkPbXPIGpET/99JOZrciG6ITCazIWyjnO+KRwQlPv2bNnm3NhnmFoqQ/dk/BK8H3jQozMZ0VRgqgougRqFB1RVEuxcuHz/eqrr8y4o1AQyi1btth7kQtC2KlTJzOmqW/fvmZkk6IoQVQUXQKiyGLFFb5SuWDlYRVCkyZNzCQMwKWKtVdSLCsLLoAYrVTWJvBYrfwcY48OZ6oKXgkmWzAnkTmTpU2wcODc1q1bZ6xqfm9Z4OKDsVJYzdqUQvEKOk+xnFTUPEUY9sQTMvSRR8xiyfBWr+PWeYpjxoyROXPmmPsMxGVs0ejRo81+y5Yt5Z577imeKg8jR46UtWvXGteqs7hj1fMcxivxPhEojpPAAwwuxkWJ6Pbs2VNq165tRIKY8YwZM2TBggWyY8cO81xeq1mzZmYYMc933JkI0quvvipr1qwxzxkyZIh8/PHH5twdjwK/g2n2bHxntlgi9M9nnjHnwXnxHMc1z+v26NHDvMf33ntPVqxYYR7DWmzVqpX5ncB7xOXKeZKE41wk8Lfk/fIazE10zpMm9iTu8J5g0KBBxtXMtH3ElJ/nou+0006TLl26mLmJ4YT3p/MUjxw6T1E5bKpZixoJN5H4D9UtIEokzACLPHMDsZacuYEkoJT8/BEvLPhQa4cFlcdJUuGWzRFEQCB5LC0trdjCwrobO3asyXrlGLE9BIvX+v777+X555+XefPmFf8eBI3fy3Nx67711lvy0Ucfmd9JtjLwO6dNm2bEEqsRIcXiJbHGud7lMd43r8Nr8zxnny3UUuW8SdB58803jTsZQUP82HhNxHL48OEyf/784mn6/B7ep/N6DMoeP368OQ/nPHkuMU4eD/0cFcVtqCi6CK70EcWSSRxKxYEgkn0JWGVYLVgxCCMgGCSnhHLZZZdJ9+7djZXkcPLJJ8u1114r559/vlxx+eXGGsQCc+jQoYM5ftGFFxrxDVjiMmXKFFm6dKkRESyz6667Tnr37i1nn322+bsjOjzHce2GwjljIWLhOD+H+xMQLo4hrtUtcef3nnPOOeZ9AVbq5dY58jgW6YH45JNPZNasWeb3YV1efPHF5ndhHXIBgZAjqFOnTt1vKQdZvY0aNZJrrrlG+vTpIxdan4FjVSL+4U5CUpQDoaLoIhBFXHK46pSKBwtl8eLF5j6L9HFNm0p1O56GiDlWzaJFi8zC74Dbj4X92GOPtR8RM03+kksukZNOOknOOOMMIx5NrddzQEA4fsqppxpxWWT9XsofAGHDZXnBBRcY8XJEDLAMscZCrU4Hfj/JMeedd555Pq9Rs2ZNcwxBxJokLs25cF7O+2GSPsLL+TRo0MA8Vhp877DygO8hrmU2fh+v2a9fPxOLBKxA3KWlWX2cAy5zXLodO3aUq6++uviCAauZuK2iuBUVRRfB4kWMSEWxcsA16pRhVK9eXY6zrCa/bcEQV3REj4XeiY85+Hw+szk4++ax0PshhD6GuxErFKHqeNZZ5m+NQPAYFl3Xrl2NUGNFYk3hjiwJ8TjO23lNLqKwdh2IM4Lze53nQcn90uDzcaxoko/atWtXHFvFQsSqRuB4HaxT3KuliSICfMwxx5ifAV7DSWYC5zwVxY2oKLoI4lqIIouNUrEgPj+tXFlcqE4sD2uMZBM24n2hyU24WUuz1g4HBGT9+vXmPqL35ezZpoNO6DZhwoRi0SKuV1qmJy7JkoSec3khU5Tz4zwo03DirKG0aNGi+HeWjEc6IIih8HpYy4riBVQUXYRjKWrbrYoHt+SqX34pFhssRpJeaHPGRpbn8uXLzTHYvn17qbG9w4EkE2f6Cb+f3zN37tw/bAg38PzSRJG4Y2XiWKdYeFh3jqUXCgLnlHAg3qWJYmnn6Qi+orgdFUUXgSiSyq8xl4qHjNJQtzTWG5Zg6Ba6wCNitH1zhKo84B51hIK/L67SgQMH7ncbMGBAWMoWSAgCPhvcoliNpeFY21zAuaXMRlEqChVFF4GLCZcVSQyR1I9yf4vrkQJhI07nxL+IHd55552lbm3btjVWDcJAfSB/i/KCxVW/fn1zH+E9tmFDkwhTcqP2jwsjskXDITacI++dvxcZ0KHJRg7EHZ3HSfLxoiiG+/uouBsVRZdB3IiFKRJcqG5xmZGZSUanQ+fOnU1JRWkbmZbOQk+ckW4uTpwt9P3gaiy5uJY8bj3B3hOTtMJxRHH2nDn7iC2iTX3i0KFD5bHHHjP1iI67tSLAHesk0BwIMksdixbXMQ3OHeuZ97pj+3b54IMPzD7vhSSfynbpKsqRRkXRZUSqKIbz6pzF3cl4xBLHGtwfJJI4CSZYlsT/EBTei5OJCQsXLjS1epRv8DyOhyaTkKjDcZ5H7I0SisaNG5tj1CoifJ999pmp6UNo6DDDZ+TUTFZLPryuSA64Np3Pn1INustQ4H+gGlhKSqi7BM6Z83r//ffliy++MKUaY8eNK57+gXuXUpXQz8Qr8DmH8/uouBsVRZfhiCKuO6/j1MnhigzXIsTvdmrvAME50EJOzA+L0QEBw2rjvRxz9NHFP7tx40aZPHmyETXikfzNyLpEjIBEnvet4zNnzjRF+bwu5Qw8h3OiZvGdd96RiRMnmg43iDZuVuolTz/9dIkup1sSV6iTJYrAUdw/adKkA36veA9Y0dRdUh6CC59ifs4R0SbGSgIQ4n9pp06mEYAjvF6Cz19R9oeKosvAhcVCs2pVxWQ+hpOYEFEM10KExe1YRyz0oYK3P3ChOos98TNKNtg/0bIwKWJ3hBGhD80SpRaPzjGOxchx3rdzQUDBP4k0dKJBAHFNIqg8h4J3ivhvvPHGfUohnAxQfr9zkRGK0ykGQo9zDv379y8u43DOhfPltZz3VxJ+jnOga06oxcy5ci64TB966CE5z7IoQ12noa93sPMMdxwSd3W4LtIU96MNwctJRTYEB2JR9erVk7POOsu4vJxF0auwcGIhUfLAwh8JIBDEKRECRKSkCDjHgeOliQAuWWKWWJEk1/A3d9qyVST880Z4+X28viPYhwI/Sy0i7ld+FisXi9frYMWfeuqp5iKBmHGkoQ3By4daii6DGjAWH+rkSsv+8xoswiR6sEUKiBydZfhblWYVOcfZ9mcVcbGAV4AEHLJhK0MQAeFGyLD6yiKIwM8SO8TCpe9rJAgihFrnilISFUUXgnuNOJbTBcXLIAyOpaIobgDrHBcqFrqilERF0YVQs4YoRsI0AaxeEjYqssRAUcoDXhhEkVZ2ilISFUUXQryDmFQkiCLTEYhJsRApihugYxTeC6aVKEpJVBRdCHV0XMkiiqX1wPQSjA4ioYRJ7MRxFCWckEm7ZMkSc8s4MEUpiYqiCyEOR/IFMcXSRgh5iVNOOcVkVlLvpi5UJdzQqYeGC1iJJDkpSklUFF0K/2Cpr2O6g5chpsjk+mnTppnib0UJF5TKzJgxQ3744QfT57ayMn4Vb6Oi6FLovIKlSJ2YlyHtnakQDPFlIUr3uOWreBeamY8ePdpkd3OhpiiloaLoUogrUmTMyCOvd9+gR2aPHj1MZ5j7Bg0yw2wV5UhCZ6N7773XuPDpKhSO0VyKN1BRdCkNGjQwBdc0YPZ6sg1F4yxEtEAbP368mQQRiZ1EFBdiXVB+s2SJmVFJ/9dbbrnFWImlNV1QFFBRdCl0S6GXZuj4Hi9DbHH0qFHyl7/8Rd58803p27evfPXVV/ZRRal46KL0zrvvSt+bbjItE2+//XZ54P77TSKbouwPFUWX4ogicwAjQRShdp06RhBvvfVWWbx4sSnXoPk09+kyQu0YCxnlKFjHlHCw4T7WTbeSm/P94LvCd4bvDhNByNieNWuWdOnSRXr37m1Kgp577jl55plnJFUFUTkI2hC8nFR0Q3AH/rG/+OKLMnjwYFNX1apVK/uI92HhIht13LhxZiI+ixhF/m3atJGjjz7auI3ps0l/UHqH0hQ9dFqEUrVxLpQQQy4YqTmk2QVJadT24l1ZvXq1KWtiDNZtt91mxnGFTuqIZLQhePlQUSwnlSWKgHDwD/qBBx6Qu+++2340ciCRaP78+caNSpo8Cxqdb7Aa6ZXK1b+Hvp5KGOAiidIKLqDwrtSpU8cMc6akCSGkZSKPVyVUFMuHimI5qUxRJMnm+uuvN5ly06dPtx+NPHCbMhGEzEDEkKt/4z7FErCE0XGTqUAqgBDiOYi2LL+o6GhjAbLhVWDIM2VAeBv2N6Ek0lFRLB8qiuWkMkURgaCUgW4wFPHrqBtFUQ6GimL50EQbF4NLyJkU/8UXX5hbRVEUpfJQUXQ5TOAnZkJKuaIoilK5qCi6HCdRYN68eZ5vDq4oiuJ2VBRdDnFECt6ZSUj5gqIoilJ5qCh6gO7duxsrccGCBZqBeQhQs0aTAJoCkNXqVfhbb7UuhrKs96MoypFBRdEDEFckxZyiZC8v8kcKyjf++9//Srdu3WTQoEEyYcIEUwPptQsKitIfe/xxmTtvnv2IoiiVjYqiB6D2Chfq8uXLTacO5cDEx8dLhw4djBCOHTtW7rrrLlPv+cQTT8iaNWvsZ7mfWTNnyr///W/56KOPNJ6sKEcIFUWPcPXVV5t5cGzqQj0wFG3TNs6p66T9FxMS/vGPfxixpPeq28URa/dvgwebhgaTJ0/2lJgfKjRooIUhvUkVxS2oKHqE5s2bmwbhMy3rgd6hyoFhKgftvkKhUw7brl27jDvazTBia9myZeY+MzXpE2tdDZl9r0IzCt4LCWPDhg0zmdVXXHGFTsBXXIWKokeoWbOmnHvuuTJjxgzT3UY5MDQWLymKNBm/+6675D//+Y+rRZFM41deecXeC4JI/vTzz/aed8DiXbt2renjO3z4cOnTp49p0j1kyBD57rvv5LzzztNOTYqrUFH0CAzqZTGhWbZ2tzk4tWvXlmbNmu0zGYEFmvFVdApyLZY1SAyR+HEoXAj9/e9/95zrfP369dK/Xz/p37+/cV9zUed4OrAQL7zwQhMDVhS3oKLoEWiC3LZtW7PQv/766/ajyv5gsvoJJ5xgrBAmJ4waNUpat25tLJTPP//cfpb7+H3DBvnwww8lPT3dfmQvU6dOlblz5th73gA39h133CG7d+0yMcRQmjZtav4mzlgwRXED+m30EMQU27dvb8YtaSH/wWE+Iy5nugHdcfvtxtKqUaOGXHXllWZcFZaj21j1888m8aRRo0ZmA1y9uIIRmA+mTPGUtcjFSZeuXeX/Roww9x2ci7wmTZrYjyiKO1BR9BC4Ai+//HKpVq2ajB49WrNQDwKiSEkD1rW1Cpukjr/97W9SaInhwIEDzYWF2z7Djh07GhEnyYZmDXDvvfeafWZOkqDitTHLlMbMnj3buEkpLwJuSbQhVq4obkJF0WNQyE8m6meffaY1iweBhTclJcXeC15U3HzzzfLII4/IiuXLTYxrvbVgu4nomBgTP3Y2IPbm7BtRsQTeK1BCRAkM489uuOEGeeyxxyTZeh/EfImRYzEqiptQUfQYWIm33HKLyVAkIUMpG1grWIkD7rzTLNTDnnzyD7EupWLgou22226TTz/9VK699lp5/PHHTSOFcW++KS1atJA///nP9jMVxT2oKHoQrriZnIG1iDgqZQNhvOeee6Rz587yxhtvyLPPPmvqF5WK49dff5X77rtP5s6dKz179jSJTsRzyfylEcV7771X7EpVFDehouhBWFjutCwdYmLaJPzwqF+/vkm8Of300+Whhx4yDcQpLlfKD3WJgwcPNqVDuKv/9a9/mS5DoYS6tRXFTagoehSutilGp/E1tYtK2WnXtq0Me+IJU+hPfJEC84KCAvuocjj88ssv5oIN1/SNN94ojz766B8EUVHcjIqiR2nYsKFcddVVMmXKFFm3bp39qFImfD45q2NHY8lQF0jM65tvvrEPKmUFQSSp5n//+5/06tVLHn74YVMjqiheQkXRoxCP6dSpk7l99dVX1YV6mFA4Ti0jJS5kShIH0zZ6ZQeX6d13321KL5j/+eKLL0qtWrXso4riHVQUPQyF/PSOpJfnypUr7UeVw4H6z/vvv9/EabF2tm3bZh9RDgZJNdR/MolkfzFERfEKKooepnr16tKjRw+TeIPrTzMoDx9KXW6//XZj5eCSpp5OLcaDQ9kFmbzTp0+Xvn37mpmVKoiKl1FR9DhYimeeeaZZlNzc09MLkJGKGJ522mnG2sGlmp2dbR9VSoK7mUbffPeuu+46k82rLlPF66goehxiilydM5md2GJmZqZ9RDkcSGCiKQLtx6hfpAm3G3ukhhtat5FlOmvWLOnWrZuMHDlSk2qUiEBFMQJg0gALFE2uKdHQRbx80ID77bffNlbPgw8+WNyDVAlCDJH4K43p6a6kMUQlklBRjBBoGk2XG5Jutm7daj+qHC4dOnQwPVLz8vJkwIAB8u2339pHqjZr1qyRQYMGmdZtN910kzz99NMqiEpEoaIYIeD2I1Fk7tw5xlpUygcLfdeuXU2vTmJnWOLU4VVlnBgihfnXX3+96QSEVa0okYSKYoTArDrKCtq372BcfqUNqVXKBlMp7r3nHiMACxcuNMXoVTUjlTpEhgXPnDnTdFMaMWKE1K1b1z6qKJGDimIE0aRxY7nxxhvM1AesxpycHPuIcrgwyolCdC44SLp5/vnnJSMjwz5aNSCG+MADD5jYKq3baKKuzbyVSEVFMZLw+aRLl65y2WWXmSkEbJp0U36YZ4gwMgCYMg0GF0sV6SDkCCITWYghclHA56EokYqKYoRBEfrQoUNNzR0L+dKlS+0jSnk45phjTHPr45o2NbWMb7/zjn0kcgmNIfbp08fUIep0CyXSUVGMQJo1ayZjxowxLcu41fhi+aFH6sknnyyPWoIITp/PSIUsU1zwNISga9KwYcM0hqhUCVQUIxQ63XCVP3HiRM1GrSAQxksvvdS01KNJAm7FH374IeKasTsuU+oQe/fubZpC4IFQlKqAimKEQjYqZQRt2rQx7r4VK1bYR5Ty0r9fPzNE96effjIC+fvvv9tHvA+damjujYVIDJEYqsYQlaqEimIEgxuVon6GEPezFvKNGzfaR5Ty4LMsRppgIxrMDmRAcSQ0YyeGyPfEiSFSgkJZiqJUJVQUI5ioqCjj7iM2RDo9xdZZWVn2UaU8JCcnm84ul1xyiclG5bP1Mky74HtCluk111xjLGCNISpVERXFCAfXF66+rl27mJFIL7/8suTm5tpHlfJARiri0apVK1OqgKvRixYjMUQEfu7cuXLttdea7whjyRSlKqKiWAXAYhw7dpyccsopMmrUKJk2bZrWL1YQLVu2NBMiaLNHH1A+Wy8J47p168xFE9MuGBA8duxY7WWqVGlUFKsIXPk/9dRTZrwPsSKd/FBxUNT/0ksvmQsNxnh5pXk4vVxxmRJDpFMN9a0MrFaUqoyKYhWiXbt2ZvID7d8YCquF/RUHsUUSbugRShNxt9eGIoi33XabmXaByxRB1BiioqgoVimcxBtKNHbs2CG9r79eVq5cGXF1duGAz5YEFSwvmiYwYcOtA58RbrKSaT5AYT5WLkOVFUVRUaySIIbDhw+XLVu3Gqtm2bJlKowVAE2y+TyZIkGMjgJ4Lj7cBIJIHSKCSAxRBwQryr6oKFZFfD5j0eAyw1JkkaQQXSk/xGxxo1500UUyYcIE0w3GLVM1cJki2tOnTzcxRDJnVRAVZV9UFKsotCzr27ev/PWvf5VvvvnGzAxEIJXy07hxYzNeqXnz5vLCyJHy8ccfhz3bl8J8YogIYq9evWTIkCFSu3Zt+6iiKA4qilUY3H0MjmX6AYLIyCkEUl2p5YcSjVdeeUUSEhPNZ/zzzz/bR448lF3QwByXLq7dF154QQVRUfaDimIFE/BY/R8W48A775R//vOfUlBQYNxqWDaR0LYs3LRt29a4Uilz6Ny5s2kefqRxmntTmH/LLbdoDDHC8dr640ZUFMuNz771MD6fca1hQdBInO4mb4wZI3l5ecHjymHBZ3nVVVfJfffdZ5qGk/H5448/2kcrH1q38bvpz4qr/Mknn1RBjHD+uBpFwPp0hFFRLCe+El+6gPWfV8GaQRjr1asnQx5+2Cyobsue9BqJiYly6623GvflnDlzTAOFTZs22UcrD2KI/F5iiMSL6c2qZRdVgBKhj5Lrk3JwVBTLzb5fOn+Bd90XWDZnnnmmvP3223LiiSeamBhF/lgcyuHDLELEEKvRyUitTCucGCJjw2bOnCndunWTZ599VgvzqwpFmg9QXlQUy4lPoux7Nh7/Tvp8Pqlfv76JK5K+T8uy7t27m0HFOmHj8CF2O2LECDP8mfjt+PHjTQy3onFiiPPmzTMu03HjxmnrtqpEifXHp0t8mdFPrJz4o6LtezZ5Fb/QhQMyUynwf+aZZ4rLN0gaMfWMmp16WDhTNY4//ngTt33//fcrtFQDQbz//vtN6zZmPfK30xhiFSO/0L4TxOcvsT4pB0VFsZz4a5RYdPL2/VJ6GcZO0bpszJgxprcnFg5xqvcnT9bxU4cBVvjJJ59sLi5oC0cpDAJWEVDy4QwI7t27t3ltHf9UBSkpiilRmItKGVBRLC9xJb5x+ZFhKTpgadBI/LXXXjOuuBUrVsgNN9xgMilpLK6UDeK2XGAws3DNmjXy6KOPlrtUAwtxwIABJoaIq5v4pcYQqygFJS7KY1QRy4qKYjnx14y179lkRZYoOsTHx5ukGwrAaWFGTKxZs2by1ltvybZt23Q+YxnAHU0RPe5p+s5iOR5uRqoTQ5w/f7706dNHXn/9dUlOTraPKlWO7H1F0Z8Sg4vC3gsTHgu3eF4Uw919JapGvH3PZk/kWk+4/1q3bm1amJE0ctxxx8nAgQOlf//+Jj7m9nFJboPaUGJ/uDyHDRtW5h6pZJnSpm/GjBnmdV588UXj8laqMFn7hjX8Kdb3IZyaaK3PXstA8KAoussd4K+ZYN8LEsiIfJdijRo1pH+/fibWSOyKgnQyVbFUJk+erFmqh0hKSopJuMGdimsai/FQY7XUIdKhBkHlc6eXKaUfStUmkPlHUVQHatnwvKXoC7PbLrpWkn0vSGCHO2foVTiW1UjDa4rSKddgUO20adOMxcIswS+++EJdqofAscceK08//bQ0adJERo8eLaNGjTro50Yskiknn3/+uUmEQkw1hqgYdu97QRpV3bpoD7P71LePN8/9Eu05UXRbh4ao+vtenRdtSrPvVQ1IxGnatKkpECcDEkH87rvvTNyRmjzcqlu3btWWcfsBlzRuaIr6k5KSZOTIkTJ16lQpLCw9i5kYItYldYjEeEnYSU1NtY8qVZ2ibfu64P01EsOrQ6WEt9zeZcdjoljiw+TzDrMx4m9cw74XJP/Hbfa9qgfiSKLHBx98YCwZYoyUB1xxxRVmsV+wYIHs3r3bfrYSCh2Exo4da+5j+S1evNjcD+W3336TwYMHm2QnBgSTEawxRCWUgtU77XtB/Fy0+8MoQqzRHgsqekoU+dP+oYNMmF10/j/Vse8Fyf5yQ9jPKZxgOdIqjkQcEnJwDRI7oxk1Czl1jvRXpbRjf9ZQVQXrmh6l69evNwk0NBF3IIZIQhOuakpiHn74YdNgQVGKsayynEVb7J0gvgZHWf8LpyhaihhiLdJhx+1ddjzoPg09ZevDLgzvZUigRV1Lpve20crftEdkjTbRprVY+/btjcVI+QbW4xlnnGEWdRZ+kkvoyzlp0iTZs8f6zBRzQUHzbhJosBSxsoHes2SqUuhP7PaRRx7RGKLyR7ZlSMFvez0xfokWObZmeC1FerH+YY0O4/kcAt4SRT7LksWoheG1ynyx0ZLQ9Vh7DwKS/z+dYO9AsToDbc8991yTrYoVRH0e/VW//PJLExdjIC9F5xMnTpQtmzcbkWSeY1Ucdkxc8cEHH5RLL73U9J0FLG7mIfbs2dMk4pD9qyglKVy2SQLb98YUY9rVkOjGKfZemDD/hPf+O/ZFWet3tIpixWFd8Zi2RQ581mEWRYi7qIV9L8ieN7+XQFq2vaeEQusxJjiwyDPnDzfg2WefbSb/41pt1ry5EUiEc8qUKbJw4UKTXEINX6SLJA3Ct2/fLlu2bDHDnumRClxYsK8DgpX9klsg2Z+uloJNe0UxumU9iaob5jIdQkmhlmKcX3wJ7pYdn7XQeGalKdq8R3a2fyHoorTwp8ZL3Z8HidQJ7x++cOkm2Xn5OCn4LVi8HlUzUWqMvVKir2hj9pUDQ0IOmavUOy5fvtxkr9L6jMexKClbYCORp0WLFqZ8oUGDBlKrVi0jGF6Dkou0tDTTxWbDhg0mdsjtxo0bjSjSIYgNdzOJS9wiiHQQUpTSKFq1TdJuek9y5v5m9v3VYiXlyUsk4Y4zjDERNjJyJe3mSZL1brCVob9anKSO6iLxvdubfTfiLVHcmiG7Oo6SvJ93mX1/SpzUXX6vSIMwNz7enS0Z90+VPW98E9y3voRJ17eTlBe6iFjCrRw62dnZJkN1965d8svq1aZ9GVmr33//vTlGgTptzEgywY3YvHkzSyiPl5YtWxrRYBKFWxphI3BkjNJ5Brexc8uG5cv7YaPZAbdYipRn8F6wEsna5edbtWplNi9eAChHgKKA5P1rsey840MJ5ATbTMa2riM13u0lvlb1zH7YSMu2RPF9yXp/mdmNqpkgqS93lbjubc2+G/GUKAa2Z8ruC1+RnO+DZQ9GFL8dKNK0ltkPJzkTv5X0AR9K4a5gR5voY5Kl+pirJaZT0AWmlA86vWBF4nZdtGiRLFmyxFhYxB6xvJyNrzPT7hs3bmxZlw2lUaPG5n6dOnVMFiyCWbylpkq8Ja7UCh4IXhPRQsjYMjMzzS3iTQ3m5s2bzYbl59xnQ+R4bXqdOrfOfRJlWrVqaW2tpU2bNnLCCScYIdSMUqWsBPbkyu6zR0nOd1vtR0Sq9TtJkl+72t4LIzszLQvWEsUPV5jd6LpJkvpqV4nt4l4vmrdEcWeWpHV+Q7IXbDD7mOJ1598qcsLRZj+cBH7fJen9J0vW9F9YRc1jyZe3tL6YV4qvXpiD3REIX9udO3eaeCPb2rVrjQWGGxKxcqwwNgSVLT8/z7rNM2LlbFhfbIiVgyNcUGg9J8t6DX4fz2PkE3E97nNLnSAb2bbc0jjd2bBkcf8igPXq1TMuX2cjoUZRyk1egeQM+VR2jZhtP0AXmzipPesW8bVraD8SRjalB92nn/xsdqMbVpPqr11lGQstzb4b8ZYo7s6WPd3/JZkz1pp9f3Ks1JnRV3ynNjH74Sb/3W9l500fSFFmsHsLNZWpQztKwtCLrW+qt3KavAyWHMJITJLYnWPd4aZkY+QVIkmXHSxN6iWdDWsTQXS2kiKI+LEhetwiblim3LLh3sUi5ZafUZRKA7fpO9/Irl5TpEjy7QdFajx6nsSx5tgXduEksG6niXVmz/zV7Mc0rS7Vx3ST6POam3034i1RTM+RzBsmyp4pP5l9f2KM1JnSS3wXueSqIytPMm+fJOn/Xmo/YJ1japwcNewCib2joyu+pMq+OC5XNue+YyU6wui4PRXFNVjf04IZP0naXVMlb+XeuujEjg0lddpNIinucMMHVm21RHGSZNsJQLHH15KjxnYT/+nuMGRKw1P/0n2UZFgi42AWsl0uKn1IjJWkl7tJXIua9gPWopuWK7sGz5D8iUvMF1lxF4gd1iBWXagblM2xEFUQFbdRuHSD7Hlw+j6CGF0vWZKevsw1ggiBzHxr29v32BcfZa2T7i4r8ta/9ijrir12SPlFYUAKN7usG0pinKS+cpVEH703jliUkSe7/zpdcl9bYKxdRVGUwyK/UArmrJb0mydJzpLN9oPWQp4cJ8l3nyXR7RrYj7iDooxcKdqzd5yVz1of/Snuzsj3lihGW6dbK2SqeEGR5K0Ilme4iagzGknqsAsl+pi9Al6wIUPSh86QzL99KrJqb5aYoijKIbE5XbJHzJW0G97dRxB91rpYrX8HSeh3skiCu6ywom3ZUrg1xJuHlVhNRbHiQBRNJmcw5hMoCkj+ut0i2S4bSxQbLbHd20rq0PNMTNGhYGuWZLyyUHZe947kvTrf1DcqiqIcEKzD6T9KWv/3Jf3xzyXv133H01W/+1RJHHy+SE2XZTQXFknhxnQpTA8ZfJycYJ2wu8uOvCWKPp+xvqLrJdoPWMK4M0PE+uBdR1KcxN58mtR+q7vJQnUISJHkLtogOwdOk10Xvy6Fby+2xL3qTtVQFKV0TALY3F9Mxv32rm9J1rSfpSg3JD5nLd81h18s8cMvF6kd4kFzC7kFEvgFr1gwl8IX45e41jUt46bEpCOX4ansUyhavslkM+V8HaxVjGmUKtVfvVKiL3FvkXxg0W+Sdv/H5pydjhOhxNRPkWr92ov/jCbib1TdxAckPlp8fHmwjmnTREkHt2RGciljZ0gW3yqK4k6cJZYbpkawz0ZPUDNFolACljUoudZtdr4UbsqQwOLfJGvCUslewig66zmhWOsAWZzVHjhbYnv+2awVbiSwLUPSu/9Hsr5cZ/Ypoas1/mqJuuJEs+9WPCeKpm3QrR9I1jvBsgdfTJSkDD1fEv96jnFbuhK++79ul5zXvpas936Q/DWlx0F91n/Rx1aTmMaWMNZNEl9KgvgQyBjrfRErsK60jDhyS0akJYgBMnLtn1eBVBS3YP2jt1dWllifI4b5NMi2tgJry8k3xfeBLMv6S8+Rou2ZUrAh3eRJ4FEqjehaCRLf6U+SeNupEnVaY1fXPxcuXCfbL3hDinh/FlE1k6TONwNEjnX3lBfviaJ1utkj50j6kBnFRfKJlxwnKW/0EN8xqWbftWTkSv7SjZI/8VvJfHeZiTEqiqIcDKysxIuaSlzfkyT2zCYiNdzfESl70BTZ/exCe08k+aqWUu293sELehfjPVG0CPywQbZ3/rcU/BYMOGMt1vyot3f6jFpXiEXrd0ne+CWS/tIiKdyh4qgoSmn4JeWmEySh/xnia11ffEmx3vAIbU2XzY1GSABr2Kbu9D7iv6SVvedePCmKUlQk6d0nSObkYOd1SO3dVhLf7Gl9hzzmQqSO59MVkjVtleTM2SCBvByRvGCMIYCbhbhDQZHJtJVC6/ncWg8HjG/Ge386Rama2GEOBI1BuxhL1q0Zuhvlt26tB2KsW+sCX+JiJa55bUns1kyiib+FeTRembEkJe+pz2XH32fYD1hv6fjaUmPZPdZ7dXeSDXhTFC2K5qySLWePte4FT98fFSu1598k/lMam31Pgu99w24JbNsjRduzpCgtxy5+tSxLOkNkW6qYbclhjiWYlkIGhRFKjz8oihJukEIEkf+iTE2hVLPEL9Yv/qRoM/fQlxxrCtr9NRLFVytJfIzCS00ICqgHIeN0R8dxkr/ZyZ3wSc3XL5fYW86w992NZ0URayq98xuS+dka+wGR+JMbyFGf3Rz8QimKoihHlpx8yXxouux5aWEwo9Yi7sS6Un3KDeJv4u4EGwd3RzwPRGyUJD/VyVx9OeQs2Sg5byw05ruiKIpyZMlfsFayP1pRLIjUUsb3bCf+Bi5PggzBu6Jo4W9ztKTc1WGvm6GoSDJGL5KiOatVGBVFUY4ggU1pkjNyruSv3ltyFndWA0no1kqEWKlH8LQomnZqvU6S2D/tnbzPH2TP/82VorU77UcURVGUSiU3X7JfWigZHwaHCYM/KVYSrmknvmZ17Ee8gbdF0SK6bX1JvvNUiaruNJkNSPZnv0jWE5+bzE5FURSlEmH6//OzZc/z86ydvR66pB6tJf76P1sq462EIc+LosTHSFyfDpJwaTP7AevPYv2RMsZ/L5n3fBDM6FQURVEqnrxCyR09T9Kfml3cuQbi2tSWpOGXur75d2l4N/u0JNszZGfH1yV35Rb7gSDJPVtL8gtXio+RU97McFYURXEflgjmvLpA0h+bKYVpe71yMcdUlxqf9DE5H17E+5aigyV6Nf7bR+LbNLQfCJI5aaWk95sshYt+C/YcVBRFUcpFYN1OyfrHTEl7+PN9BbH+UZL67F/E36qe/Yj3iBxLEax3UrhwraTf84nkfv1bSHG7T+La1ZWkAadKXI92Iilax6goilJmsvMlf9YqyX5hnmT+jxrxvfIRXStVUkdcJLHXtHXdsOOyEFmiCJY1WPT9Jkm/e5pkz/s19G8mUUfFS2yHhpLyyDniP72paa+kKIqiHJzA2u2SNXy2ZE1dKQUlZthG106Wo8Z1l+gLjxOJc+m0okMk8kTRYXuGpPd6SzI/XxfsFxqC3x8j1a5tLQl/P0d8f6rLAxpvVBRFKQlr55Y0yR/3tex+ZIEUFGTbB2x8PolrU0uOmtRbfM29VXqxPyJXFKGwUHKf/VLSR30tBevT/iCOKGG1q1tIbJc2EtX2aImqkyxyVIJ75zIqiqJUJgWFwdmOO7Kk4KftUvDJCsmYsEwKd5cQQ4soa61M7N5akv5+vvhcPiOxLES2KEJugRR8uUay31oiWW+vkKL8vaNMHOhMH9u8hsS0qi2+RjUlql51iW6SbBr0+lPiRBJjxBcfG3QL0JmBpr7OoF9qcOh0T1cdux4nYHfY8Xm0oa+iKN7CWcatBd3cFhsAxdP9mbhjbQw5RvisddGMdcrKk0BGnhRZolewIUMK1qVJ4PedUvjLdsldum2fMgsHWrcldGos8T3aS9yVrUSqJ9pHIoPIF0Ww3mJgR6bkz1snOa/Ml8zp+waIS+K3LEX/UXHiQwwdIWSsC2NPzNgXWwytGyOGZgv+LPeLX9k87BxQFEWpHEKXcbPisM9DobdGHLktkgCT/wstcWRMHVt2gRSl50pRBkYDP1AaPok7obYk3XG6xP6lhfgaHmXWu0ijaohiKNYVUtGitZLx2CzJmvVrcGahoiiKsl9iG9WQ6k+dJ1Gd24gkx0WkGDpUPVF04Grp+98l570fJOuT1VK0K1OKdudIURrugqr5kSiKoviTYsSfGi++GokS1+FoSep1ovgv+JN4YUBwRVB1RdGBt78rSwqXb5b8lVsl78ddIrszRdKyJZBubQz3zcmXopwCEWsL5BdJUbZ1Py8ggVzLyrRuEdGAWCJbLKYqqoqihIOgBRcM2/B/vyVm1r1EciGs/Ti/+OKjTFiIzU89YaJ1S+12SrxI9SSJaZoqMcfXkugT6ovUT7V+njhR1UFFsSR8HBmWtZidJwGC0LkIYKGZD4YgGl98HrfW8/KtzboNimFw4/+KoijhwpHFoChat2iaJYbc+siNiLXuRFvCaN2SZGgEMiHWJBRKknVrHavKqCgqiqIoik3VsosVRVEU5QCoKCqKoiiKjYqioiiKotioKCqKoiiKjYqioiiKotioKCqKoiiKjYqioiiKotioKCqKoiiKjYqioiiKotioKCqKoiiKjYqioiiKotioKCqKoiiKjYqioiiKotioKCqKoiiKjYqioiiKohhE/h/T3ERRFP85oQAAAABJRU5ErkJggg==;imageBorder=default;" vertex="1" parent="1">
          <mxGeometry x="323.5" y="261" width="153" height="280.33" as="geometry" />
        </mxCell>
      </root>
    </mxGraphModel>
  </diagram>
</mxfile>
